<svg width="13" height="16" viewBox="0 0 13 16" fill="none" xmlns="http://www.w3.org/2000/svg">
<path d="M11.7801 3.70964H8.92002V3.4839C8.92002 2.11423 7.8343 1 6.5 1C5.1657 1 4.07998 2.11423 4.07998 3.4839V3.70964H1.21993C1.09852 3.70964 1 3.81077 1 3.93538V14.7743C1 14.899 1.09852 15 1.21993 15H11.7801C11.9015 15 12 14.8989 12 14.7743V3.93538C12 3.81077 11.9015 3.70964 11.7801 3.70964ZM4.51999 3.4839C4.51999 2.3633 5.40822 1.45163 6.5 1.45163C7.59178 1.45163 8.48001 2.3633 8.48001 3.4839V3.70964H4.51999V3.4839ZM11.56 14.5485H1.44002V4.16127H4.07998V6.64518C4.07998 6.76995 4.1785 6.87092 4.29991 6.87092C4.42132 6.87092 4.51984 6.76979 4.51984 6.64518V4.16127H8.47985V6.64518C8.47985 6.76995 8.57838 6.87092 8.69979 6.87092C8.8212 6.87092 8.91972 6.76979 8.91972 6.64518V4.16127H11.5597V14.5485H11.56Z" fill="black" stroke="black" stroke-width="0.3"/>
</svg>
