<svg width="359" height="534" viewBox="0 0 359 534" fill="none" xmlns="http://www.w3.org/2000/svg">
<path d="M347.929 392.882C346.668 392.235 345.303 391.797 343.892 391.588C331.76 389.206 316.72 390.39 310.46 400.753C304.453 410.699 309.57 424.478 303.19 434.211C302.315 435.58 300.826 436.888 299.273 436.422C298.08 436.066 297.48 434.807 297.085 433.684C293.472 423.219 295.758 411.274 290.98 401.26C286.428 391.677 275.312 385.517 264.514 386.543C259.623 387.002 254.231 388.679 250.109 386.078C248.034 384.757 246.735 382.566 245.641 380.403C235.245 359.766 236.657 334.796 245.585 313.535C254.513 292.275 270.174 274.245 287.473 258.591C290.035 256.277 293.119 253.848 296.591 254.238C298.527 254.565 300.307 255.475 301.68 256.839C310.149 264.444 309.839 278.236 318.251 285.868C323.453 290.584 331.146 291.974 338.218 291.132C345.29 290.29 351.931 287.477 358.452 284.698C353.265 278.332 356.709 269.002 355.502 260.966C355.295 259.452 354.864 257.975 354.225 256.579C350.548 248.673 340.257 246.161 331.322 245.914C322.387 245.668 312.76 246.537 305.166 241.965C315.464 231.163 336.009 235.503 346.101 224.51C351.317 218.822 352.136 210.512 351.388 202.942C350.639 195.371 348.564 187.883 349.044 180.271C341.93 183.358 333.835 183.098 326.064 183.728C318.294 184.358 309.909 186.322 305.173 192.325C296.492 203.339 304.51 221.717 294.65 231.759C294.742 231.663 293.366 228.083 293.239 227.652C292.901 226.17 292.665 224.667 292.533 223.155C292.251 220.068 292.293 216.994 292.222 213.88C292.18 212.182 292.102 210.492 291.919 208.801C291.748 207.104 291.434 205.424 290.98 203.777C290.532 202.141 289.87 200.568 289.011 199.095C288.571 198.337 288.063 197.618 287.494 196.946C287.442 196.898 287.401 196.841 287.373 196.777C287.345 196.714 287.331 196.645 287.331 196.576C287.331 196.419 287.55 196.268 287.656 196.145L288.122 195.584L289.039 194.468C291.587 191.34 293.655 187.958 296.288 184.81C299.224 181.305 302.124 177.773 304.926 174.166C310.597 167.029 315.617 159.427 319.931 151.447C327.575 136.929 331.929 120.248 328.916 104.217C327.252 95.8977 323.962 87.9634 319.225 80.8419C316.296 76.338 312.125 70.4513 314.899 64.9617C316.409 61.9568 319.712 60.225 322.966 59.1161C330.878 56.3782 339.905 56.0975 346.546 51.0939C351.917 47.028 354.726 40.4226 355.509 33.8583C356.293 27.2941 355.276 20.6682 354.26 14.1312C354.228 13.5898 354.04 13.0681 353.717 12.6254C353.235 12.1966 352.624 11.9301 351.973 11.8656C344.774 10.4213 337.392 9.08654 330.094 10.0311C322.797 10.9757 315.506 14.6104 312.041 20.9009C307.206 29.7035 310.996 40.7512 308.328 50.3341C307.785 52.2917 306.74 54.441 304.743 55.0092C302.555 55.6937 300.198 54.0988 299.195 52.1069C298.193 50.1151 298.186 47.8015 298.116 45.5837C297.869 38.1128 296.626 30.7043 294.417 23.543C293.006 19.0459 291.086 14.4119 287.204 11.6123C283.915 9.23028 279.695 8.49787 275.637 7.92974C266.89 6.70611 258.085 5.92246 249.255 5.58193C248.538 5.50036 247.811 5.58963 247.138 5.84203C245.641 6.52653 245.444 8.49787 245.458 10.1133L245.585 29.0874C245.627 34.3717 245.747 39.9777 248.655 44.4543C252.41 50.2451 259.736 52.6271 266.497 54.5985L285.016 60.006C286.661 60.4851 288.545 61.2449 288.905 62.8808C289.181 64.2498 288.03 65.6188 286.661 66.1459C285.249 66.55 283.759 66.6204 282.313 66.3512C273.286 65.3382 263.519 63.935 255.628 68.302C250.292 71.2522 246.644 76.516 244.569 82.122C242.494 87.728 241.837 93.7241 241.258 99.6518C241.167 100.631 241.103 101.705 241.724 102.479C242.28 103.034 242.992 103.419 243.771 103.588L255.522 107.243C261.952 109.242 269.031 111.22 275.284 108.735C281.212 106.38 284.826 100.569 287.402 94.8809C289.978 89.1928 292.067 83.0597 296.514 78.59C298.094 77.0019 300.042 75.6124 302.336 75.4276C306.112 75.1196 309.253 78.1245 311.511 81.0815C321.611 94.3333 325.471 111.706 322.55 127.88C319.261 146.088 307.375 161.674 296.309 176.206C294.192 178.994 292.022 181.745 289.802 184.46C287.847 186.856 286.089 189.936 283.873 192.065C283.591 192.449 283.167 192.866 282.659 192.668C282.068 192.382 281.495 192.062 280.944 191.709C280.528 191.49 280.111 191.264 279.681 191.066C278.406 190.48 277.093 189.977 275.75 189.56C272.962 188.732 270.104 188.143 267.21 187.801C263.399 187.36 259.565 187.132 255.727 187.116C253.969 187.116 252.057 187.116 250.681 188.177C249.304 189.238 248.831 191.045 248.45 192.715C245.74 204.708 243.722 219.116 252.883 227.625C254.18 228.838 255.646 229.87 257.237 230.691C257.943 231.033 258.324 231.054 258.289 231.889C258.232 233.142 257.329 234.36 256.56 235.311C255.706 236.366 254.922 237.488 254.16 238.611C250.361 244.326 247 250.304 244.103 256.497L243.171 258.475C237.736 270.254 233.756 282.615 231.314 295.3C227.17 316.645 227.292 338.562 231.674 359.862C233.149 366.974 235.12 373.981 237.574 380.835C239.642 386.605 242.063 392.362 242.515 398.454C243.171 406.592 240.397 415.224 243.757 422.705C247.286 430.481 256.249 434.342 264.69 436.587C268.889 437.696 273.159 438.599 277.281 439.92C279.325 440.556 281.318 441.336 283.245 442.254C284.213 442.728 285.155 443.249 286.068 443.815C286.717 444.226 287.797 444.595 287.924 445.43C288.27 447.744 280.535 447.744 279.102 447.71C270.506 447.518 261.458 444.013 252.988 447.08C246.763 449.352 242.402 455.068 240.32 461.187C238.238 467.307 238.026 473.857 237.857 480.305C237.821 481.524 237.814 482.824 238.478 483.858C239.268 485.09 240.8 485.631 242.225 486.082C253.602 489.724 266.927 493.139 276.808 486.541C286.322 480.182 288.136 467.375 294.749 458.21C295.518 457.142 296.443 456.06 297.734 455.711C299.57 455.212 301.419 456.327 302.936 457.436C314.757 466.102 324.087 477.566 330.031 490.73C332.332 495.836 334.117 501.49 332.854 506.925C331.706 511.558 328.761 515.584 324.632 518.165C321.103 520.389 316.953 521.587 312.824 522.511C296.027 526.18 278.439 525.249 261.352 524.982C244.565 524.668 227.857 522.668 211.496 519.013C206.464 517.898 201.262 516.508 197.458 513.127C191.374 507.712 190.492 499.019 190.033 491.497C186.504 434.259 189.433 376.694 197.797 319.956C198.63 314.336 200.211 308.847 201.65 303.336C209.132 276.504 217.742 250.562 229.924 225.393C234.942 215.016 252.431 180.751 226.352 183.119C222.934 183.506 219.569 184.252 216.316 185.343C207.007 188.253 195.475 185.467 190.203 178.909C187.111 175.076 186.356 171.229 189.342 166.958C192.214 162.851 196.272 162.851 200.211 164.371C206.238 166.712 212.392 169.094 217.82 172.475C227.439 178.471 234.229 178.471 242.077 170.326C247.723 164.453 252.664 157.902 257.816 151.55C258.148 151.139 257.576 149.558 256.962 148.97C252.537 144.746 247.787 140.831 243.552 136.436C239.318 132.042 234.617 129.051 228.272 129.112C216.33 129.236 208.433 136.156 201.34 144.363C200.168 145.732 199.42 147.751 197.952 148.47C195.129 149.839 190.697 152.159 189.179 151.091C185.77 148.675 188.474 145.054 190.337 142.255C191.538 140.655 192.837 139.125 194.226 137.675C196.343 135.266 198.785 133.076 200.514 130.433C211.164 114.143 210.543 99.1521 192.193 87.7553C188.545 85.3912 185.362 82.415 182.792 78.9664C180.512 75.982 179.757 77.1183 177.936 79.1033C174.549 82.7791 170.695 86.0099 167.378 89.7061C163.849 93.6967 159.847 97.6394 157.497 102.287C152.705 111.747 157.914 119.906 162.875 127.689C166.404 133.206 170.639 138.312 174.167 143.829C174.993 145.116 174.259 147.334 174.245 149.127C172.537 148.525 170.497 148.319 169.185 147.265C162.339 141.789 156.022 135.629 148.851 130.577C143.643 126.922 137.411 126.854 131.581 130.379C124.403 134.725 117.113 138.901 110.048 143.384C109.3 143.863 109.144 146.368 109.709 147.429C111.826 151.427 114.346 155.253 116.837 159.066C119.195 162.666 120.945 167.245 124.304 169.518C134.524 176.411 145.146 174.309 155.415 168.834C158.796 167.033 162.085 164.973 165.656 163.638C175.501 159.942 180.922 164.124 179.207 174.241C178.596 176.863 177.064 179.198 174.873 180.846C169.34 184.953 162.932 185.145 156.22 183.817C151.659 182.866 147.009 182.375 142.344 182.352C132.174 182.421 125.695 189.8 127.128 199.554C127.809 203.855 128.853 208.094 130.247 212.23C135.258 227.631 141.158 242.793 145.4 258.379C152.775 285.423 157.906 312.173 159.226 340.094C160.857 374.469 160.934 408.865 159.819 443.26C159.546 451.785 159.222 460.307 158.845 468.826C158.499 476.801 158.633 485.008 156.855 492.838C154.985 501.107 150.453 509.56 141.935 512.853C137.975 514.386 133.698 514.906 129.457 515.372C112.218 517.078 94.881 517.67 77.561 517.145C68.7953 516.912 60.0437 516.456 51.3062 515.776C40.9313 515.009 30.627 514.325 21.212 509.513C14.733 506.206 11.5358 500.819 13.4908 493.947C17.9725 478.204 28.7991 466.567 39.3504 454.377C44.799 448.059 51.5109 447.929 56.0349 454.849C59.3953 459.991 61.6873 465.72 62.7821 471.715C65.4923 487.52 79.4455 491.065 92.22 489.334C96.3971 488.776 100.609 488.495 104.825 488.492C108.086 488.492 108.954 488.108 108.107 484.44C107.092 480.024 106.984 475.459 107.789 471.003C111.008 454.151 101.699 444.089 85.5292 442.61C78.9302 442.008 72.2748 442.453 65.6617 442.09C64.9053 442.078 64.1611 441.904 63.4825 441.579C62.804 441.255 62.208 440.789 61.7376 440.214C60.9683 439.188 60.6295 437.476 61.4482 436.388C62.2669 435.3 63.3256 433.972 64.6877 433.438C67.5884 432.295 71.0397 432.569 74.2863 432.124C80.0807 431.309 85.9456 430.755 91.6271 429.468C96.8033 428.22 101.403 425.336 104.701 421.27C107.998 417.205 109.805 412.189 109.836 407.017C109.836 400.753 109.624 394.49 109.462 388.227C109.411 387.412 109.461 386.594 109.61 385.79C110.013 383.737 110.951 382.621 112.433 380.157C112.977 379.233 113.541 378.261 114.515 376.242C115.701 373.771 116.753 371.197 117.776 368.644C119.985 363.086 121.855 357.398 123.578 351.682C126.782 341.011 128.885 329.977 128.871 318.826C128.894 302.793 126.671 286.831 122.265 271.377C117.649 255.518 109.737 241.534 102.157 226.885C101.896 226.379 101.621 225.865 101.31 225.373L102.397 225.147C113.083 223.155 119.068 217.617 119.964 206.967C120.522 200.32 120.289 193.605 120.169 186.925C120.169 186.185 118.658 184.981 117.705 184.83C112.532 184.009 107.225 183.858 102.143 182.722C99.8314 182.184 97.4854 181.795 95.1207 181.558C91.743 181.154 88.3146 181.536 85.1199 182.674C83.5227 183.307 82.0423 184.188 80.737 185.282C80.0312 185.864 79.4596 186.719 78.7326 187.24C76.5306 188.834 73.6652 184.324 72.5712 183.037C68.3366 178.054 63.5232 173.577 59.0486 168.799C55.8938 165.418 52.9083 161.893 49.7112 158.532C46.514 155.171 43.0981 151.885 40.0844 148.264C34.3465 141.42 29.3919 133.377 27.3028 124.697C24.6068 113.52 26.1877 101.733 31.0858 91.3421C34.3135 84.605 38.765 78.4862 44.2273 73.2783C47.368 70.2528 52.2731 68.1377 56.1902 70.1296C58.9145 71.4986 60.3472 74.4488 61.5117 77.2141C63.5397 82.0193 65.3441 86.9088 66.925 91.8828C68.4777 96.7701 70.1292 102.15 74.5474 104.943C77.921 107.065 82.1768 107.188 86.1927 107.236L107.246 107.489C108.545 107.489 110.027 107.448 110.852 106.476C111.398 105.666 111.646 104.702 111.558 103.738C111.629 97.8607 111.702 91.9764 111.777 86.0852C111.841 81.2116 111.826 76.0505 109.257 71.8614C106.935 68.0898 102.792 65.6325 98.459 64.373C94.1256 63.1136 89.5381 62.9151 85.014 62.7234L68.1601 62.0389C65.9511 61.9431 63.1632 61.4023 62.7116 59.3009C62.3163 57.4597 64.1231 55.8785 65.8522 55.0366C73.9757 50.9638 83.8495 52.4013 92.6717 49.9439C100.562 47.7399 107.599 41.9764 109.984 34.358C111.466 29.6487 111.142 24.6108 110.803 19.6962L109.617 3.03562C109.561 2.26214 109.441 1.3723 108.77 0.982138C108.303 0.758595 107.778 0.672924 107.26 0.73572L89.1287 1.33807C83.0237 1.54341 76.5871 1.83775 71.449 5.03434C65.7534 8.56632 62.7186 15.0553 61.2859 21.4622C59.8531 27.869 59.712 34.5018 58.2158 40.9018C57.5806 43.6397 55.3927 46.9869 52.7107 45.9533C51.4403 45.4673 50.7628 44.1326 50.3534 42.8731L50.2899 42.6815C47.5656 33.9952 51.8356 24.2001 48.5537 15.6577C46.1682 9.49723 40.0844 5.16439 33.6407 3.11091C27.197 1.05743 20.231 0.913689 13.4414 0.79048C12.2628 0.79048 10.9359 0.79048 10.1313 1.6461C9.71176 2.1589 9.42604 2.76238 9.2985 3.40524L6.41895 13.3851C4.76038 19.128 3.10887 25.2748 5.0074 30.9561C7.12473 37.4451 13.4767 41.8053 19.8287 44.6459C26.1806 47.4866 33.1749 49.2457 39.0399 53.0173C40.4294 53.795 41.5758 54.9233 42.357 56.2823C43.8744 59.3762 41.8277 62.9356 39.7739 65.7215C32.3844 75.7493 23.6963 85.3048 19.9487 97.085C16.201 108.865 17.8878 121.768 22.8494 133.069C32.7302 155.548 54.4822 170.894 69.3458 190.073C70.7574 191.908 72.1689 193.831 72.7688 196.049C73.1583 197.862 73.2771 199.72 73.1217 201.566C72.9171 207.432 72.7053 213.339 71.4349 219.075C71.1337 220.956 70.3872 222.744 69.2541 224.298C68.0331 225.777 65.9793 226.748 64.1019 226.242C61.2083 225.455 60.3048 221.957 60.1143 219.048C59.6273 211.758 60.4107 204.393 59.3026 197.144C57.3124 184.2 46.4434 173.515 32.3068 174.494C25.0443 175.001 17.8948 176.869 10.6465 174.166C8.49392 173.358 7.56936 174.474 7.73875 177.061C8.27514 184.871 8.76212 192.722 8.52921 200.539C8.1975 211.655 14.3942 220.342 25.6513 223.292C29.886 224.408 34.1982 225.441 38.4682 226.543C40.5855 227.091 42.7028 227.652 44.8202 228.248C45.6389 228.48 46.4223 228.809 47.248 229.007C47.9948 229.121 48.7047 229.4 49.323 229.822L50.0288 230.328C50.3527 230.642 50.5844 231.034 50.6998 231.464C50.8152 231.893 50.8101 232.345 50.6851 232.772C50.5907 233.275 50.3736 233.749 50.0519 234.153C49.7302 234.558 49.3133 234.883 48.836 235.099C45.6953 236.414 42.5335 235.38 39.2869 235.202C34.6217 234.935 29.9354 234.401 25.2914 234.641C14.0907 235.216 5.68494 243.471 4.18164 254.176C3.47586 259.187 1.61264 264.033 0.539859 269.009C0.328126 269.995 1.09035 272.021 1.81024 272.226C7.97872 273.972 14.3589 275.081 20.4639 277.018C33.2102 281.036 42.3429 277.702 48.8219 265.922C50.4512 262.727 51.8451 259.424 52.993 256.038C55.6256 248.926 60.5589 242.115 68.6471 247.187C76.7353 252.26 83.7083 261.788 89.2981 269.167C110.591 297.231 126.415 338.026 106.081 370.513C104.141 373.606 102.221 376.584 100.583 379.835C100.467 380.125 100.278 380.382 100.033 380.581C99.6944 380.768 99.3059 380.851 98.9178 380.821C89.538 380.992 78.902 379.945 70.4609 384.716C63.4032 388.72 59.9167 396.154 58.6392 403.731C57.5876 409.96 56.5219 416.237 54.9198 422.356C54.7626 423.002 54.3579 423.566 53.7877 423.933C53.2176 424.301 52.5247 424.444 51.8497 424.334C51.4438 424.262 51.0557 424.116 50.7063 423.903C48.5466 422.63 48.6455 420.118 48.7443 417.975C48.9913 412.657 49.6406 407.338 49.5277 402.033C49.2877 390.294 44.4249 384.189 32.4762 381.704C25.0302 380.15 17.2949 379.849 9.67963 379.178C9.00914 379.117 7.71052 380.356 7.5623 381.143C6.07312 389.028 4.83096 396.955 3.37707 404.84C1.96552 412.54 4.84508 419.803 12.0652 423.369C18.2515 426.316 24.6768 428.766 31.2763 430.693C41.6301 433.869 43.7192 439.592 37.0425 447.805C36.4073 448.579 35.7157 449.311 35.1087 450.099C26.7029 460.955 17.4008 471.318 10.1595 482.838C3.1018 494.07 2.48073 513.483 21.8331 519.417C31.3893 522.347 41.6936 523.702 51.7438 524.277C69.1835 525.263 86.7008 525.598 104.162 525.235C117.962 524.918 131.731 523.821 145.4 521.95C155.556 520.581 161.054 515.105 162.508 505.358C164.625 491.168 164.583 476.287 165.225 461.974C166.251 439.158 166.623 416.312 166.34 393.436C166.065 370.848 164.703 348.26 163.32 325.754C162.614 314.802 161.965 303.802 160.221 292.898C158.457 281.843 156.177 270.878 153.968 259.905C153.884 259.474 153.799 259.036 153.707 258.605C153.467 257.386 153.22 256.175 153.001 254.963C149.472 237.57 144.2 220.485 139.126 203.428C135.675 191.853 140.262 184.946 154.441 188.999C164.484 191.867 174.711 191.353 182.46 182.647C184.62 180.217 185.432 181.962 187.02 183.584C194.402 191.114 202.9 195.905 214.206 192.544C218.262 191.258 222.402 190.238 226.599 189.492C231.808 188.684 233.813 190.703 233.361 195.768C232.655 203.907 227.312 211.375 223.875 218.651C201.368 266.36 190.958 318.149 186.321 370.211C182.453 413.608 182.411 457.217 182.489 500.744C182.489 507.192 182.721 514.283 187.577 519.226C192.313 524.017 199.773 525.968 206.231 527.439C225.569 531.745 245.458 533.237 265.269 533.223C283.09 533.223 304.418 534.428 321.272 527.973C329.523 524.811 337.032 518.733 339.622 510.512C342.946 500.08 337.83 488.855 331.231 480.011C324.632 471.167 316.339 463.296 311.928 453.254C310.897 450.913 310.121 448.141 311.356 445.896C312.217 444.582 313.439 443.527 314.885 442.85C323.305 438.229 333.637 437.579 341.81 432.582C353.321 425.498 357.951 409.583 351.952 397.714C351.028 395.777 349.785 393.936 347.929 392.882ZM236.706 315.952C236.602 315.932 236.506 315.882 236.431 315.808C236.294 315.662 236.201 315.482 236.163 315.288C235.98 314.34 235.95 313.37 236.071 312.413C236.123 311.413 236.179 310.414 236.24 309.415C236.353 307.738 236.48 306.054 236.685 304.384C236.741 303.859 236.805 303.332 236.876 302.803C237.606 297.193 238.695 291.634 240.136 286.156C240.376 285.238 240.63 284.321 240.898 283.418C241.557 281.136 242.286 278.87 243.086 276.621C243.886 274.371 244.743 272.174 245.655 270.029C246.564 267.866 247.54 265.73 248.584 263.622C249.629 261.514 250.718 259.435 251.852 257.386C252.995 255.333 254.193 253.309 255.445 251.315C256.696 249.321 257.999 247.34 259.354 245.374C260.719 243.407 262.131 241.47 263.589 239.562C264.295 238.597 265.05 237.646 265.798 236.694C266.172 236.222 266.546 235.743 266.927 235.27C267.094 235.026 267.283 234.797 267.492 234.586C267.697 234.422 267.944 234.552 268.198 234.586L268.96 234.791L270.485 235.202C271.501 235.476 272.517 235.756 273.526 236.051C276.04 236.745 278.483 237.662 280.824 238.789C282.425 239.49 283.823 240.562 284.896 241.91C288.51 246.968 283.428 253.451 278.911 257.777C277.161 259.456 275.444 261.163 273.759 262.897C272.075 264.631 270.428 266.408 268.819 268.229C267.196 270.054 265.61 271.879 264.062 273.705C262.514 275.53 260.999 277.424 259.517 279.386C258.044 281.303 256.604 283.249 255.197 285.225C253.791 287.201 252.428 289.197 251.111 291.214C249.784 293.24 248.5 295.294 247.258 297.374C246.015 299.455 244.808 301.545 243.637 303.644C242.475 305.757 241.353 307.891 240.27 310.044C239.826 310.941 239.381 311.831 238.951 312.728C238.491 313.596 238.079 314.487 237.715 315.397C237.678 315.508 237.619 315.611 237.54 315.699C237.461 315.787 237.365 315.859 237.257 315.911C237.172 315.953 237.08 315.978 236.986 315.985C236.891 315.993 236.796 315.981 236.706 315.952ZM107.662 285.505C100.118 270.748 89.9403 257.694 78.7256 245.353C73.0794 239.145 74.4133 233.717 82.5156 230.65C85.4163 229.541 88.4017 228.665 91.3589 227.727C91.7793 227.545 92.2468 227.49 92.6999 227.57C93.321 227.741 93.6668 228.371 93.935 228.939C98.8754 239.316 104.345 249.528 108.982 260.022C113.055 268.959 116.179 278.275 118.305 287.826C119.272 292.313 119.979 296.849 120.423 301.413C120.55 302.837 120.653 304.263 120.733 305.691C120.804 306.998 121.093 308.559 120.613 309.798C120.582 309.883 120.54 309.964 120.486 310.038C120.365 310.161 120.202 310.238 120.028 310.257C119.654 310.299 119.277 310.227 118.948 310.051C118.437 309.81 118.037 309.393 117.825 308.881C114.353 301.132 111.53 293.069 107.662 285.505Z" fill="#3F8C65"/>
</svg>
