<svg width="410" height="534" viewBox="0 0 410 534" fill="none" xmlns="http://www.w3.org/2000/svg">
<path d="M168.253 128.373C165.613 127.705 162.988 126.952 160.324 126.393C157.788 125.865 154.923 126.696 152.764 124.637C154.843 124.637 156.913 124.692 158.992 124.637C159.321 124.637 159.65 124.303 159.987 124.125C159.634 123.915 159.249 123.496 158.936 123.542C156.897 123.869 154.883 124.319 152.853 124.7C147.982 124.637 143.415 125.989 138.865 127.48C135.808 128.49 135.382 128.358 134.74 125.274C134.331 123.263 133.015 123.069 131.53 123.084C129.428 123.084 128.136 122.525 127.799 120.265C127.678 119.488 126.651 118.711 125.84 118.23C125.311 117.927 124.428 118.23 123.706 118.23C124.199 118.517 124.664 118.847 125.094 119.216C125.68 119.783 126.482 120.381 126.643 121.08C127.108 123.185 128.441 123.993 130.495 123.938C132.22 123.892 133.28 124.241 133.384 126.307C133.432 127.255 134.788 128.078 135.27 129.088C136.113 130.89 137.525 132.886 137.292 134.626C136.856 137.625 135.815 140.513 134.227 143.123C133.424 144.474 131.073 145.01 129.363 145.802C127.919 146.47 126.153 146.688 124.942 147.597C122.149 149.655 119.701 152.164 116.917 154.199C115.552 155.185 113.586 156.171 112.037 155.993C107.68 155.488 103.884 157.546 99.7671 158.074C98.1621 158.276 96.6534 160.498 95.3694 162.02C93.2989 164.466 91.1242 165.197 88.4919 163.799C87.9302 163.503 87.6413 162.742 87.224 162.191C87.7617 162.059 88.3716 161.701 88.829 161.826C92.1674 162.742 91.6458 158.867 93.6922 158.222C93.0742 157.15 92.5285 156.024 91.8063 155.022C91.3483 154.43 90.7622 153.942 90.0889 153.593C88.3956 152.614 88.0987 151.379 89.5031 150.074C91.7742 147.946 90.3056 146.618 89.0457 144.583C87.3925 141.942 84.6881 139.713 85.1856 135.837C85.5227 133.197 85.7875 131.053 88.3555 129.663C89.0109 129.304 89.5056 128.723 89.7438 128.032C90.6426 124.358 94.1496 123.465 96.854 121.865C97.8652 121.267 99.6467 121.981 101.067 121.903C101.801 121.746 102.507 121.485 103.162 121.127C102.785 120.645 102.512 119.931 102.014 119.721C100.931 119.255 100.024 118.944 100.867 117.538C100.931 117.43 100.546 116.925 100.273 116.762C95.7867 114.284 93.7885 111.123 94.9039 105.997C95.4496 103.472 95.2651 100.832 97.1509 98.7191C97.8331 97.9424 98.3868 96.9637 99.2375 96.4977C106.781 92.3967 114.638 91.2394 122.687 94.9443C123.81 95.4569 124.733 97.0181 125.094 98.2763C125.56 99.8763 125.375 101.663 125.439 103.364C125.6 107.371 124.837 110.812 119.958 111.744C119.782 111.783 119.685 112.218 119.549 112.467C119.252 112.467 118.891 112.35 118.666 112.467C117.061 113.391 115.408 114.369 113.787 115.333C113.859 115.426 113.963 115.612 113.987 115.604C115.592 114.898 117.198 114.191 118.714 113.43C119.069 113.195 119.388 112.912 119.661 112.591C127.74 109.957 136.206 108.606 144.731 108.591C145.156 108.562 145.577 108.5 145.991 108.404C145.802 107.91 145.554 107.438 145.253 106.999C142.637 103.962 139.981 100.964 137.348 97.9501C130.88 90.5559 124.46 83.1307 117.936 75.7909C114.429 71.8453 110.802 67.9851 107.126 64.1871C102.311 59.2395 97.5923 54.2065 92.5125 49.5463C86.7585 44.257 80.9805 38.8978 74.6086 34.3774C66.3107 28.4823 57.427 23.3639 48.768 17.9658C47.3439 17.1628 45.8637 16.4569 44.3382 15.8532C36.2088 12.2338 28.0714 8.63769 19.9501 4.97944C19.151 4.60281 18.4108 4.11909 17.7512 3.54255C17.5185 3.34061 17.6148 2.76586 17.5586 2.38528C17.9409 2.29033 18.3371 2.25881 18.7302 2.29207C24.4842 3.80663 30.4227 4.88624 35.944 6.95225C45.5018 10.5872 55.0917 14.3309 64.144 18.9833C77.5378 25.8648 89.2062 35.2473 101.003 44.4434C111.131 52.3347 119.509 61.7638 128.344 70.8512C128.868 71.2808 129.435 71.6582 130.038 71.9774C129.989 71.4181 129.893 70.8511 129.893 70.2919C129.893 66.3075 129.203 62.3619 131.594 58.525C133.219 55.7403 134.307 52.6925 134.804 49.5308C135.079 47.2231 134.804 44.8851 134.002 42.6959C132.718 38.7269 133.199 35.3483 136.08 32.1794C137.757 30.4852 138.699 28.2338 138.713 25.8881C138.815 24.1767 139.494 22.545 140.647 21.2435C144.571 16.9095 148.054 12.4668 148.487 6.4241C148.487 6.18333 149.217 5.79498 149.587 5.81828C149.956 5.84158 150.341 6.26099 150.67 6.55614C153.695 9.25128 156.921 11.7755 159.658 14.727C161.263 16.4513 162.001 19.0299 160.597 21.2513C158.607 24.358 159.546 27.224 161.223 29.8493C163.045 32.692 164.056 35.3561 162.948 38.7891C162.566 40.0504 162.513 41.3837 162.793 42.6699C163.073 43.956 163.678 45.155 164.553 46.1599C165.885 47.8221 166.158 49.6162 165.685 51.8687C165.179 54.3308 165.861 56.9949 165.91 59.5735C165.91 60.956 166.07 62.4861 165.548 63.7133C162.836 70.0744 165.629 75.6356 168.14 81.189C168.726 82.4783 171.029 83.2317 171.23 84.4278C171.391 85.4453 169.392 86.6492 168.823 87.954C167.928 90.2106 167.161 92.5131 166.527 94.8511C166.247 95.7754 166.431 97.1113 165.821 97.6317C163.679 99.4647 165.757 100.195 166.584 101.282C165.292 100.777 164.176 102.059 162.483 100.894C156.938 97.0103 151.039 93.5773 145.253 90.02C144.601 89.6577 143.894 89.3957 143.159 89.2433C142.729 89.2084 142.296 89.2346 141.875 89.321C142.123 89.6084 142.364 89.8958 142.613 90.1754C147.075 95.2006 151.625 100.156 155.975 105.274C157.941 107.604 157.62 108.032 154.466 108.428L153.174 108.568C153.637 108.801 154.124 108.988 154.626 109.127C157.563 109.694 160.493 110.362 163.454 110.68C166.102 110.991 167.466 112.234 167.932 114.735C168.222 116.462 168.923 118.1 169.98 119.519C171.038 120.939 172.422 122.101 174.023 122.913C175.196 123.56 176.332 124.267 177.425 125.034C177.714 125.243 177.803 125.725 177.979 126.082C177.594 126.082 177.217 126.168 176.832 126.168C176.149 126.168 175.467 126.168 174.785 126.105C175.387 126.47 175.989 126.843 176.599 127.193C179.648 128.964 182.738 130.688 185.739 132.536C186.51 133.143 187.202 133.836 187.802 134.602C187.585 133.5 187.625 132.272 187.08 131.317C186.287 130.119 185.329 129.032 184.231 128.086C183.171 127.076 181.96 126.23 180.86 125.267C178.669 123.356 176.414 121.5 174.36 119.457C173.028 118.136 171.559 116.676 170.933 115.006C169.224 110.47 167.94 105.795 166.479 101.181C167.46 100.52 168.263 99.6411 168.821 98.6183C169.38 97.5955 169.677 96.4583 169.689 95.3016C169.741 93.4102 170.185 91.548 170.994 89.8256C171.803 88.1032 172.961 86.5556 174.4 85.2744C177.249 82.6026 178.533 79.2783 179.215 75.6744C179.918 72.2727 181.308 69.0391 183.308 66.1599C185.66 62.6628 187.295 58.76 188.123 54.6648C188.981 49.826 191.879 46.2143 194.126 42.2376C195.326 40.2332 196.776 38.3786 198.443 36.7153C201.396 33.6085 203.322 34.1677 205.545 37.6163C209.028 43.0531 210.505 49.2046 213.065 54.9677C213.418 55.7444 213.49 56.8007 214.068 57.3599C217.775 60.9483 217.88 65.6628 218.827 70.2065C219.725 74.5249 221.322 78.7036 222.566 82.9599C222.862 83.9147 223.04 84.9003 223.096 85.8958C223.123 87.5 223.493 89.0815 224.184 90.5401C224.874 91.9986 225.87 93.3026 227.108 94.3695C227.55 94.7579 228.216 95.1462 228.32 95.6278C229.291 100.094 230.439 104.552 230.904 109.072C231.041 110.393 228.978 111.83 228.24 113.36C226.515 116.933 224.613 120.21 221.017 122.47C219.693 123.302 218.698 125.336 218.482 126.936C218.104 129.647 216.732 131.302 214.581 132.816C213.498 133.593 212.912 135.006 212.102 136.133C213.272 135.638 214.408 135.073 215.504 134.439C217.494 133.142 219.396 131.721 221.33 130.346C221.756 130.043 221.716 130.059 221.266 128.661C221.193 128.263 221.276 127.853 221.499 127.511C222.301 126.276 222.871 124.777 223.987 123.931C227.999 120.878 230.343 116.622 232.686 112.474C234.291 109.639 236.698 108.203 239.491 107.27C248.15 104.389 256.986 103.387 265.974 105.818C268.718 106.595 270.315 106.152 272.795 103.97C275.524 101.562 274.641 100.513 273.381 98.5326C273.252 98.2809 273.139 98.0215 273.044 97.7559C271.615 94.688 271.728 94.9909 274.833 93.9346C277.961 92.8055 280.951 91.3469 283.749 89.5851C285.178 88.7152 286.004 88.3579 287.641 89.2433C289.278 90.1288 291.172 90.1288 292.97 90.4705C293.074 90.4705 293.435 89.8259 293.395 89.7948C291.044 87.7831 293.596 87.2162 294.527 86.2142C295.458 85.2123 296.694 84.4977 297.279 83.387C300.425 77.4065 306.259 74.2453 311.54 70.5715C322.716 62.8046 333.986 55.136 345.349 47.5658C347.861 45.9036 350.967 45.0803 353.808 43.8687L355.036 44.9095C349.081 49.4143 343.399 54.3308 337.076 58.2764C331.956 61.4764 327.237 64.8628 323.297 69.3521C322.293 70.3215 321.101 71.0896 319.79 71.6123C313.37 74.6337 309.678 80.6298 304.542 85.0337C302.488 86.7968 300.859 89.1967 298.555 90.4705C296.653 91.5346 296.268 92.2492 296.95 94.1132C297.705 96.2492 297.448 98.5792 299.406 100.459C301.075 102.067 299.96 103.783 298.403 105.329C296.157 107.638 294.053 110.073 292.103 112.622C291.895 112.959 291.774 113.339 291.749 113.731C291.724 114.123 291.796 114.515 291.959 114.874C292.248 115.325 293.371 115.41 294.126 115.418C295.016 115.418 296.148 115.465 296.75 114.991C299.759 112.599 303.057 114.672 306.171 114.261C306.556 114.214 307.271 114.424 307.375 114.688C308.506 117.546 312.567 118.012 313.121 121.437C313.281 122.439 314.493 123.278 315.215 124.202C317.623 127.309 317.535 130.843 315.898 134.369C314.686 136.979 314.349 139.993 313.867 142.867C313.787 143.34 314.918 144.094 315.593 144.575C318.706 146.766 318.754 147.333 315.986 150.012C315.577 150.416 315.408 151.1 314.943 151.387C314.597 151.604 313.963 151.387 313.466 151.34C313.402 151.34 313.362 151.084 313.321 150.944C312.96 149.577 312.463 147.014 312.262 147.061C309.405 147.364 307.166 144.241 304.197 145.764C303.547 146.09 302.528 146.152 302.231 146.641C299.342 151.449 294.904 149.593 290.996 148.886C290.218 148.698 289.406 148.684 288.621 148.846C287.837 149.007 287.101 149.34 286.47 149.818C284.319 151.371 282.273 151.892 279.977 150.082C279.269 149.527 278.417 149.173 277.514 149.057C275.05 148.816 274.079 147.589 273.437 145.267C273.06 143.892 271.294 142.564 269.818 141.865C268.028 141.01 267.338 140.389 268.758 138.758C270.548 136.668 270.869 134.696 268.389 132.746C267.651 132.171 267.33 131.076 266.889 130.183C265.195 126.773 260.396 125.795 257.772 128.505C250.606 135.9 242.685 142.587 236.987 151.333C233.199 157.134 227.863 161.981 223.906 167.698C220.295 172.917 216.307 177.958 214.18 184.125C212.326 189.461 209.566 194.501 207.295 199.713C206.772 200.903 206.473 202.173 206.412 203.464C206.412 205.95 206.059 208.529 206.308 211.006C206.532 213.266 206.757 215.573 207.014 217.841C207.214 219.604 207.656 221.422 207.68 223.185C207.755 228.963 207.693 234.737 207.495 240.505C207.319 245.857 206.637 251.255 206.412 256.552C206.067 264.676 205.858 272.8 205.738 280.932C205.876 281.832 206.336 282.657 207.038 283.262C212.254 288.21 212.463 292.901 207.038 297.398C206.457 297.784 205.99 298.31 205.686 298.925C205.382 299.54 205.25 300.221 205.304 300.901C205.393 303.658 205.465 306.416 205.778 309.15C206.163 312.482 206.267 312.427 202.52 312.435C202.046 312.435 201.525 313.212 201.115 313.662C200.945 313.964 200.831 314.293 200.778 314.633C201.337 314.728 201.907 314.747 202.472 314.688C204.606 314.183 206.709 313.523 208.892 313.08C209.26 313.001 209.642 312.996 210.013 313.064C210.384 313.132 210.737 313.272 211.05 313.476C212.045 314.385 211.684 315.456 210.497 315.884C207.287 317.025 204.077 318.02 200.818 319.053C200.393 319.165 199.962 319.253 199.526 319.317C199.905 319.472 200.311 319.559 200.722 319.573C205.168 318.858 207.23 320.124 208.081 325.01C209.269 331.721 214.902 335.985 219.806 340.482C226.306 346.431 231.41 353.359 234.138 361.67C236.714 369.515 236.426 377.111 230.832 383.922C229.267 385.833 227.887 387.891 226.426 389.887C222.542 395.169 218.016 400.124 214.934 405.81C210.197 414.553 207.331 424.132 206.508 433.973C205.505 445.46 207.311 456.116 213.402 466.112C217.037 472.077 220.512 478.151 223.698 484.349C224.737 486.58 225.242 489.01 225.174 491.456C225.174 500.567 221.475 508.435 215.416 515.239C210.721 520.512 205.674 525.491 202.953 532.124C202.76 532.59 202.199 532.901 201.814 533.312C201.42 532.924 200.81 532.606 200.666 532.147C199.542 528.613 196.83 526.307 194.126 524C186.799 517.786 181.976 509.778 177.409 501.662C176.363 499.874 175.777 497.868 175.7 495.815C175.624 493.762 176.058 491.72 176.968 489.864C178.34 486.8 180 483.865 181.927 481.095C188.067 472.761 192.151 463.612 193.042 453.452C193.845 444.318 195.073 435.076 191.871 426.027C189.833 420.17 186.985 414.608 183.404 409.491C177.787 401.46 171.631 393.724 166.551 385.414C160.027 374.68 161.207 365.375 168.758 354.346C172.939 348.241 178.99 343.837 184.56 339.045C187.49 336.539 189.675 333.321 190.891 329.724C191.694 327.394 192.44 325.064 193.299 322.734C194.607 319.216 194.639 319.223 191.469 316.746C186.189 312.614 187.633 302.983 193.973 300.117C194.326 299.954 195.064 299.853 195.145 299.985C196.1 301.538 196.613 301.538 196.669 299.651C196.639 299.073 196.561 298.5 196.437 297.934C196.83 295.037 197.239 292.14 197.584 289.235C197.632 288.816 197.215 288.342 197.015 287.891C196.725 288.371 196.527 288.897 196.429 289.445C196.429 292.311 196.477 295.177 196.517 298.043C190.001 294.012 191.702 286.851 195.755 283.713C197.897 282.066 197.833 282.02 197.921 279.363C198.307 268.637 198.724 257.919 199.109 247.193C199.233 244.765 199.129 242.332 198.796 239.923L198.531 238.121C198.162 235.596 197.255 233.391 196.774 230.913C196.284 227.798 196.284 224.63 196.774 221.515C197.103 218.96 197.729 216.428 197.793 213.841C197.765 211.301 197.393 208.776 196.686 206.33C195.129 199.993 193.435 193.67 191.461 187.441C188.063 176.29 183.723 165.429 178.485 154.967C174.207 146.626 169.89 138.338 163.654 131.154C163.178 130.592 162.756 129.989 162.395 129.352C162.215 128.96 162.078 128.552 161.985 128.133C162.525 127.96 163.087 127.861 163.654 127.837C165.259 127.969 166.905 128.21 168.526 128.412C174.223 132.171 177.498 137.849 180.756 143.402C184.15 149.189 187.064 155.247 189.953 161.266C195.032 171.892 199.767 182.649 201.886 194.299C202.078 195.356 203.29 196.241 204.028 197.204C203.828 197.585 203.402 197.981 203.451 198.338C203.643 199.534 204.004 200.668 204.301 201.872C204.43 201.872 204.686 201.787 204.686 201.756C204.614 200.661 204.558 199.565 204.414 198.486C204.302 198.067 204.138 197.662 203.924 197.282L202.768 190.431C203.419 189.197 204.077 187.954 204.719 186.703C204.622 186.625 204.52 186.552 204.414 186.486C203.868 187.69 203.33 188.886 202.809 190.09C202.76 190.198 202.809 190.362 202.857 190.501C201.396 184.645 199.647 178.851 198.555 172.925C197.464 166.999 198.074 161.057 195.081 155.317C191.14 147.752 186.751 140.56 180.306 134.921C176.816 131.946 173.26 128.684 168.253 128.373ZM173.87 371.938C174.015 372.769 174.103 373.608 174.32 374.423C174.536 375.239 174.914 376.186 175.219 377.064C175.265 376.108 175.206 375.15 175.042 374.206C174.722 373.427 174.295 372.693 173.774 372.023C173.702 370.742 173.63 369.46 173.533 368.186C173.477 367.814 173.397 367.446 173.293 367.084C173.076 367.394 172.626 367.759 172.691 368.008C172.988 369.336 173.437 370.633 173.846 371.938H173.87ZM217.013 379.86C219.982 377.359 221.234 374.066 221.667 370.392L222.029 365.01C221.892 365.01 221.619 365.087 221.619 365.126C221.619 366.905 221.708 368.676 221.764 370.447L217.093 379.938C216.291 381.142 215.488 382.346 214.686 383.557C214.686 383.557 214.878 383.72 214.975 383.814L217.013 379.86ZM273.862 125.632C276.125 124.56 275.893 122.905 274.52 121.484C273.797 120.756 273.267 119.869 272.978 118.899C272.688 117.928 272.648 116.904 272.859 115.915C273.004 114.968 272.996 113.997 273.052 113.034C272.498 114.012 271.447 114.999 271.447 115.97C271.608 117.798 271.979 119.603 272.554 121.352C272.939 122.82 273.453 124.257 273.91 125.702C273.26 126.23 272.586 126.735 271.976 127.309C271.532 127.768 271.114 128.25 270.725 128.754C271.351 128.56 272.201 128.536 272.554 128.125C273.09 127.347 273.53 126.51 273.862 125.632ZM201.637 231.495C200.722 228.8 199.791 226.097 198.884 223.402C198.724 222.929 198.636 222.447 198.507 221.965C198.258 222.462 197.665 223.099 197.817 223.418C199.045 226.121 200.409 228.761 201.733 231.426C202.303 233.041 202.849 234.664 203.491 236.264C203.587 236.513 204.101 236.614 204.422 236.777C204.558 236.528 204.791 236.28 204.799 236C204.887 232.117 204.959 228.233 204.983 224.35C204.983 224.024 204.566 223.69 204.349 223.363C204.117 223.666 203.691 223.969 203.691 224.272C203.691 226.284 203.691 228.303 203.868 230.307C204.045 232.552 202.672 231.682 201.637 231.511V231.495ZM192.649 333.561C193.877 332.163 195.056 330.734 196.34 329.383C199.069 326.509 202.76 326.858 204.887 330.159C205.505 331.146 205.906 332.249 206.492 333.266C208.193 336.373 211.066 338.105 214.268 339.41C214.638 339.565 215.255 339.161 215.761 339.014C215.456 338.726 215.199 338.299 214.838 338.183C210.521 336.777 207.945 333.802 206.436 329.763C204.831 325.437 199.575 325.018 196.758 327.208C194.743 328.761 192.705 330.656 192.745 333.592C192.369 333.802 192.017 334.05 191.694 334.33C190.988 335.053 190.338 335.829 189.664 336.583C189.928 336.676 190.354 336.917 190.466 336.839C191.244 336.052 191.978 335.224 192.665 334.361C192.745 334.237 192.633 333.864 192.633 333.577L192.649 333.561ZM259.056 124.389C258.591 123.985 258.39 123.651 258.149 123.612C253.912 122.96 249.45 121.22 245.486 121.958C237.734 123.402 230.68 127.146 224.444 131.923C221.314 134.315 218.112 136.894 215.849 140.001C210.432 147.441 208.193 156.164 206.893 165.057C206.091 170.633 205.722 176.272 205.16 181.88C205.08 182.727 205.04 183.573 204.975 184.412C205.682 183.713 206.428 183.045 207.062 182.284C207.369 181.786 207.637 181.267 207.864 180.731C213.482 171.193 218.698 161.391 224.878 152.202C231.514 142.315 240.294 134.105 249.426 126.315C251.834 124.28 254.193 122.129 257.732 124.187C258.16 124.321 258.607 124.389 259.056 124.389ZM279.753 119.48L278.509 119.907C278.814 120.171 279.095 120.467 279.424 120.684C281.029 121.771 283.027 122.54 284.102 123.985C286.51 127.255 289.872 128.42 293.684 128.878C297.496 129.336 300.53 131.255 301.814 134.843C302.937 138.004 305.69 138.602 308.314 139.581C308.592 139.631 308.878 139.631 309.156 139.581C308.94 139.325 308.779 138.921 308.498 138.804C305.184 137.585 303.435 135.045 301.854 132.125C301.159 130.737 300.085 129.561 298.748 128.723C297.411 127.885 295.862 127.417 294.27 127.371C292.552 127.363 290.857 126.98 289.314 126.25C287.77 125.52 286.416 124.461 285.354 123.154C283.918 121.484 281.494 120.583 279.753 119.48ZM198.323 130.043C198.652 130.905 199.125 132.257 199.695 133.593C199.899 133.958 200.149 134.298 200.441 134.602C200.441 134.191 200.489 133.779 200.441 133.368C200.321 131.232 200.104 129.103 200.088 126.968C200.088 124.117 200.465 121.228 200.192 118.424C199.671 113.088 198.531 107.799 201.42 102.68C202.223 101.344 202.223 99.5734 202.48 98.02C202.544 97.6938 202.215 97.3055 202.07 96.9482C201.829 97.2869 201.62 97.6456 201.444 98.02C198.973 104.762 196.838 111.472 198.852 118.828C199.51 121.22 199.021 123.915 198.949 126.478C198.82 127.678 198.611 128.869 198.323 130.043ZM146.16 49.3832C146.601 51.822 146.85 53.5463 147.267 55.224C147.537 55.841 147.902 56.4145 148.351 56.925C148.548 56.3496 148.638 55.7445 148.616 55.1385C147.115 49.1036 148.174 43.3871 150.622 37.7794C151.248 36.1573 151.742 34.49 152.098 32.793C152.187 32.4357 151.922 32.0163 151.818 31.5891C151.432 31.9075 150.838 32.1638 150.71 32.56C150.02 34.6312 149.397 36.7024 148.84 38.7735C147.869 42.525 146.93 46.2687 146.144 49.3832H146.16ZM166.72 119.076C166.343 118.657 166.198 118.3 165.918 118.237C164.697 117.689 163.419 117.27 162.106 116.987C153.495 115.814 144.876 114.727 136.177 116.109C135.564 116.257 134.965 116.455 134.387 116.7C134.951 116.844 135.53 116.933 136.113 116.964C146.007 116.482 155.87 116.436 165.516 119.154C165.914 119.182 166.314 119.156 166.704 119.076H166.72ZM253.463 114.758C255.541 114.859 257.628 114.968 259.714 115.03C260.21 115 260.702 114.924 261.183 114.804C260.774 114.68 260.38 114.533 259.947 114.439C251.304 112.405 242.188 113.545 234.363 117.639C234.122 117.764 234.042 118.183 233.89 118.463C234.312 118.516 234.741 118.497 235.158 118.408C241.04 116.14 247.075 114.61 253.463 114.758ZM117.775 122.09L117.302 121.313C117.042 121.66 116.832 122.039 116.676 122.439C115.777 126.408 113.297 129.01 109.686 131.037C105.208 133.554 102.552 137.593 101.163 142.401C101.082 142.789 101.036 143.184 101.027 143.581C101.42 143.263 102.03 143.014 102.167 142.618C104.101 137.08 108.129 133.298 113.073 130.292C116.106 128.436 117.278 125.523 117.775 122.09ZM152.443 67.5191C151.89 65.8492 150.967 63.0065 149.98 60.1793C149.851 59.8143 149.45 59.5424 149.177 59.2318C149.041 59.6822 148.688 60.1949 148.792 60.591C149.514 63.3638 151.063 66.1366 150.967 68.8628C150.726 75.7754 155.14 79.2239 160.324 82.3696C160.581 82.4733 160.851 82.5439 161.127 82.5793C161.038 82.2608 161.062 81.8026 160.854 81.6472C159.835 80.7929 158.703 80.0938 157.708 79.1929C154.57 76.4201 151.882 73.4142 152.443 67.5191ZM197.047 354.897C197.921 360.94 198.836 367.262 199.783 373.585C199.783 373.864 200.184 374.105 200.393 374.361C200.508 374.112 200.594 373.852 200.65 373.585C200.771 372.871 200.801 372.146 200.738 371.425C199.366 363.705 197.616 356.016 198.908 348.124C198.887 347.758 198.792 347.399 198.628 347.068C198.424 347.414 198.262 347.781 198.146 348.163C197.769 350.245 197.44 352.427 197.047 354.889V354.897ZM202.327 79.5035C202.11 78.3773 201.773 76.3968 201.332 74.4473C201.125 73.9554 200.838 73.499 200.481 73.0958C200.306 73.5725 200.19 74.068 200.136 74.5715C200.225 78.0045 200.449 81.4375 200.449 84.8705C200.449 87.721 200.176 90.5793 200.088 93.4142C200.088 93.7171 200.538 94.0356 200.778 94.3462C200.923 94.1231 201.032 93.8794 201.099 93.6239C201.493 89.2278 201.87 84.8084 202.327 79.4958V79.5035ZM199.542 494.26H199.799C199.799 492.963 199.799 491.666 199.799 490.376C199.759 490.093 199.689 489.815 199.591 489.545C199.279 489.785 198.984 490.044 198.708 490.322C198.506 490.535 198.387 490.81 198.371 491.099C198.906 495.945 199.47 500.787 200.064 505.623C200.064 505.841 200.321 506.035 200.449 506.244C200.59 505.841 200.671 505.42 200.69 504.994C200.329 501.398 199.928 497.817 199.542 494.244V494.26ZM200.048 442.276H200.313L198.708 428.963C198.652 428.536 198.595 428.116 198.531 427.697C198.407 428.207 198.332 428.727 198.307 429.25C198.523 433.716 198.788 438.175 199.029 442.641C199.141 444.792 199.221 446.944 199.318 449.095C199.558 446.796 199.799 444.528 200.032 442.26L200.048 442.276ZM196.365 307.293C196.196 306.928 195.803 306.09 195.418 305.251C194.695 305.926 193.596 306.493 193.355 307.301C193.053 308.507 193.08 309.767 193.435 310.959C193.612 311.573 194.663 311.954 195.313 312.443C195.482 311.775 195.666 311.115 195.803 310.447C196.019 309.577 196.116 308.715 196.365 307.278V307.293ZM201.123 263.954H200.987C200.939 264.678 200.939 265.404 200.987 266.128C201.107 266.649 201.287 267.154 201.525 267.635C201.621 267.099 201.765 266.571 201.822 266.082C202.006 264.358 202.231 262.641 202.327 260.925C202.488 257.903 202.584 254.882 202.648 251.86C202.648 251.519 202.303 251.169 202.11 250.82C201.923 251.148 201.788 251.501 201.709 251.868C201.509 255.845 201.324 259.892 201.123 263.938V263.954ZM197.368 59.4104L197.978 59.5813C197.822 60.2864 197.736 61.0042 197.721 61.725C197.848 62.3547 198.053 62.9674 198.331 63.5502C198.635 63.0533 198.839 62.5051 198.933 61.9347C198.74 57.8415 199.141 53.8881 201.228 50.2065C201.468 49.7871 201.276 49.1425 201.284 48.5988C200.88 49.0146 200.542 49.4857 200.281 49.9968C199.27 53.1036 198.331 56.2492 197.368 59.3949V59.4104ZM202.07 296.427H201.854C201.854 294.726 201.854 293.025 201.854 291.332C201.854 290.983 201.533 290.649 201.356 290.307C201.17 290.639 201.043 290.999 200.979 291.371C200.979 293.942 200.875 296.528 200.979 299.091C201.134 300.202 201.403 301.295 201.781 302.354C201.87 301.22 201.982 300.093 202.038 298.959C202.102 298.058 202.07 297.282 202.07 296.412V296.427ZM209.726 141.5C209.253 141.562 208.731 141.5 208.643 141.663C207.543 143.628 206.484 145.616 205.497 147.635C205.361 147.915 205.698 148.412 205.81 148.8C206.115 148.513 206.516 148.28 206.693 147.938C207.576 146.144 208.402 144.319 209.245 142.501L209.726 141.5ZM179.006 384.124C178.878 384.435 178.677 384.676 178.693 384.901C178.73 386.31 178.894 387.714 179.183 389.095C179.607 390.284 180.172 391.42 180.868 392.482C180.972 392.668 181.39 392.753 181.671 392.753C181.775 392.753 182 392.225 181.96 392.194C179.424 390.322 180.098 387.596 179.873 385.095C179.833 384.753 179.319 384.458 179.006 384.124ZM200.915 478.532C200.714 477.491 200.353 475.495 199.936 473.514C199.796 473.132 199.604 472.769 199.366 472.435C199.165 472.81 199.04 473.218 198.997 473.639C199.262 476.07 199.583 478.493 199.92 480.916C200.032 481.301 200.196 481.669 200.409 482.011C200.61 481.629 200.772 481.229 200.891 480.815C200.954 480.056 200.962 479.293 200.915 478.532ZM207.335 290.175L206.083 287.845C205.739 288.629 205.444 289.434 205.2 290.253C205.045 290.952 205.002 291.669 205.072 292.381C205.185 292.854 205.369 293.31 205.617 293.732C206.02 293.373 206.371 292.963 206.661 292.513C206.953 291.751 207.186 290.97 207.359 290.175H207.335ZM202.913 156.7L203.435 157.934C203.763 157.448 204.032 156.927 204.237 156.381C204.566 155.146 204.807 153.888 205.04 152.622C205.044 152.224 204.982 151.828 204.855 151.449C204.558 151.729 204.053 151.962 203.988 152.296C203.595 153.593 203.306 154.999 202.913 156.7ZM199.133 157.833C198.919 158.06 198.723 158.301 198.547 158.556C199.35 159.55 200.152 160.536 201.075 161.468C201.139 161.538 201.701 161.173 202.03 161.01L199.133 157.833ZM200.546 69.3444L198.941 65.3987C198.941 66.7735 198.941 68.1638 199.069 69.523C199.109 69.9657 199.671 70.354 199.992 70.7657L200.546 69.3444ZM134.66 82.5482C134.483 82.8201 134.235 83.1152 134.275 83.154C135.446 84.4278 136.682 85.6705 137.846 86.9132C137.942 86.688 138.183 86.3307 138.103 86.2453C137.027 85.0259 135.912 83.8686 134.66 82.5327V82.5482ZM181.414 493.67C181.332 494.019 181.286 494.376 181.277 494.734C181.39 495.58 181.526 496.419 181.711 497.242C181.832 497.643 181.987 498.033 182.176 498.408C182.348 497.932 182.445 497.435 182.465 496.932C182.338 496.227 182.145 495.536 181.887 494.866C181.775 494.563 181.623 494.198 181.414 493.67ZM201.476 286.991L203.587 286.113C203.107 285.876 202.589 285.718 202.054 285.647C201.066 285.75 200.085 285.911 199.117 286.128L201.476 286.991ZM196.26 389.911L196.926 391.852C197.015 391.006 197.119 390.159 197.175 389.313C197.199 388.879 197.175 388.444 197.103 388.016C197.041 387.737 196.955 387.465 196.846 387.2C196.656 387.514 196.503 387.847 196.389 388.194C196.298 388.762 196.244 389.336 196.228 389.911H196.26ZM205.385 207.185L204.51 205.173C204.237 205.758 204.04 206.374 203.924 207.006C203.924 207.433 204.269 207.884 204.462 208.327L205.385 207.185ZM196.148 147.488C195.594 146.509 195.257 145.872 194.864 145.267C194.617 144.918 194.349 144.583 194.061 144.265C193.972 144.779 193.972 145.304 194.061 145.818C194.305 146.343 194.654 146.816 195.089 147.208C195.217 147.379 195.602 147.379 196.148 147.511V147.488ZM237.926 122.525C237.637 122.424 237.34 122.206 237.124 122.261C235.872 122.595 234.644 122.991 233.408 123.364C233.496 123.558 233.625 123.923 233.673 123.915C234.949 123.667 236.233 123.395 237.493 123.076C237.669 123.053 237.75 122.742 237.926 122.525ZM202.616 272.427C202.399 271.713 202.191 271.006 201.982 270.292C201.918 271.115 201.789 271.946 201.806 272.769C201.85 273.447 201.939 274.121 202.07 274.789L202.616 272.427ZM204.518 249.29C204.069 248.567 203.547 247.736 203.033 246.89C202.889 247.115 202.576 247.41 202.632 247.55C203.009 248.443 203.435 249.313 203.908 250.183L204.518 249.29Z" fill="#3F8C65"/>
<path d="M17.5435 211.845C20.4887 211.783 20.2479 214.392 20.4325 215.822C21.54 224.559 22.9122 233.336 23.0487 242.121C23.2011 252.396 22.1258 262.68 21.7406 272.963C21.6924 274.268 22.9203 275.581 23.0005 276.917C23.2734 281.639 24.0438 286.284 22.2542 291.068C20.0554 297.055 18.333 303.196 17.1021 309.437C16.3197 313.992 15.9785 318.607 16.0829 323.223C16.0829 331.34 16.4521 339.464 16.428 347.581C16.428 351.767 15.8181 355.953 15.6255 360.147C15.4329 363.697 17.2305 367.293 15.3767 370.827C15.3045 370.959 15.6255 371.278 15.7619 371.503C16.0268 371.208 16.42 370.944 16.5644 370.594C18.0731 366.19 19.7744 361.833 20.9461 357.328C22.2221 352.303 23.0406 347.153 23.8432 342.027C24.0839 340.474 23.474 338.858 23.474 337.266C23.474 333.81 23.5462 330.338 23.7709 326.889C23.8913 325.017 24.5253 323.184 24.7179 321.313C25.6969 311.946 26.034 302.47 27.7754 293.235C28.7946 287.798 29.8138 282.447 30.3113 276.986C30.6181 274.559 30.5748 272.102 30.1829 269.686C28.6512 262.437 28.4799 254.981 29.6773 247.674C30.207 244.505 29.3804 241.126 29.1878 237.849C29.0957 237.153 29.0957 236.448 29.1878 235.752C29.6854 233.507 30.5922 231.301 30.7928 229.033C31.7799 218.09 32.8874 207.154 29.0915 196.412C28.0081 193.359 27.6952 190.059 27.0853 186.859C27.0211 186.525 27.31 186.121 27.4384 185.756C27.8075 185.973 28.3773 186.113 28.4977 186.416C29.5618 188.814 30.439 191.285 31.1218 193.81C32.5824 200.598 34.0831 207.293 33.6658 214.455C33.2405 221.771 34.8696 229.212 34.9017 236.552C34.9498 245.872 34.2035 255.122 33.9868 264.412C33.8905 268.466 34.3479 272.528 34.38 276.59C34.4185 279.61 34.2631 282.63 33.9146 285.631C33.1121 292.264 32.0929 298.835 31.2262 305.491C30.6082 310.237 30.0144 314.975 29.5811 319.736C29.3644 322.066 29.6934 324.396 29.5329 326.68C28.8347 336.466 28.0563 346.245 27.2779 356.031C27.247 356.908 27.0568 357.773 26.7161 358.586C21.9011 368.815 22.4709 379.969 20.6973 390.718C20.2288 393.417 19.6154 396.089 18.8596 398.726C16.2354 408.163 16.733 417.561 18.659 427.075C20.5529 436.466 22.503 445.864 26.4352 454.633C28.8978 459.904 31.9696 464.889 35.5918 469.491C41.9476 477.794 49.0177 485.677 57.9014 491.448C68.8717 498.578 80.837 503.689 94.303 505.017C110.353 506.57 125.601 504.163 139.974 497.18C145.886 494.363 151.232 490.546 155.759 485.91C160.654 480.846 166.312 476.505 170.268 470.508C173.005 466.361 174.457 461.895 176.118 457.39C178.173 451.821 177.009 445.973 177.98 440.303C175.268 437.196 177.579 433.064 175.837 429.817C174.096 426.571 172.186 423.674 170.22 420.691C167.443 416.474 164.49 412.396 161.28 408.443C154.242 399.767 144.877 394.905 134.131 392.536C127.816 391.138 121.66 393.553 115.858 395.806C111.685 397.429 108.973 401.095 107.448 405.079C106.26 408.339 105.607 411.76 105.514 415.215C105.41 418.229 109.013 421.429 111.814 421.709C112.326 421.684 112.831 421.587 113.314 421.421C112.88 421.354 112.453 421.25 112.038 421.11C106.084 418.555 105.891 416.543 110.939 412.668C115.834 408.916 124.244 411.643 127.262 416.551C132.277 424.776 127.262 434.951 119.036 438.796C110.321 442.881 101.317 440.994 94.2388 434.609C87.554 428.59 85.2828 421.367 86.3422 412.978C86.6551 410.493 87.9472 408.093 88.9744 405.724C89.9053 403.588 90.7238 401.274 92.1844 399.51C96.5661 394.415 100.811 389.041 107.825 386.967C108.828 386.659 109.794 386.248 110.706 385.74C116.718 382.39 123.667 380.955 130.568 381.639C140.15 382.617 149.596 384.272 157.893 389.942C162.968 393.516 167.521 397.735 171.432 402.485C173.213 404.567 174.321 407.208 175.621 409.646C178.341 414.757 181.736 419.689 183.461 425.11C185.267 430.796 187.594 436.528 187.064 442.827C186.639 447.875 186.872 452.924 185.347 457.895C184.232 461.491 182.94 464.885 180.58 467.992C176.969 472.699 173.919 477.817 170.733 482.827C166.634 489.556 160.94 495.245 154.122 499.425C148.943 502.619 143.537 505.453 137.943 507.906C132.59 510.092 127.051 511.823 121.388 513.079C113.066 514.998 104.535 514.943 96.0043 514.718C95.5573 514.702 95.1133 514.64 94.6802 514.532C82.9716 511.751 71.3434 508.815 60.6701 503.052C54.3864 499.658 48.0467 496.473 42.7822 491.557C36.5066 485.693 31.2904 479.06 26.2908 472.186C18.8114 461.941 14.6545 450.291 10.8827 438.415C9.87453 434.827 9.35387 431.128 9.33387 427.409C9.10114 420.194 9.25362 412.963 9.26164 405.74C9.26164 405.305 9.50239 404.738 9.30176 404.45C6.02754 399.79 7.02265 394.159 5.34542 389.142C4.74893 387.046 4.43338 384.884 4.40651 382.711C3.99723 375.332 3.88486 367.953 3.30705 360.575C2.72123 353.08 1.56563 345.623 0.963756 338.136C0.650779 334.252 1.00389 330.369 1.04401 326.532C1.04401 324.979 1.04401 323.425 1.04401 321.911C0.91561 316.551 0.731026 311.184 0.6588 305.817C0.637233 303.651 0.752468 301.485 1.00387 299.332C1.06807 298.757 1.80639 298.26 2.29592 297.724C2.64099 298.268 3.2268 298.781 3.28298 299.348C4.14968 307.72 5.23306 316.085 5.69049 324.482C6.20409 334.175 5.88311 343.899 6.41277 353.608C6.78994 360.544 7.94555 367.441 8.82028 374.345C8.87645 374.796 9.38201 375.184 9.67894 375.604C9.85558 375.238 9.98237 374.852 10.0561 374.454C10.2487 369.413 10.4814 364.357 10.5617 359.316C10.6339 354.656 10.5617 349.996 10.5617 345.336C10.5616 344.751 10.6018 344.168 10.6821 343.588C12.1507 333.779 10.9309 323.922 11.0673 314.074C11.1074 311.285 10.0321 308.505 9.59871 305.701C9.18943 303.037 9.06904 300.334 8.62766 297.685C7.73688 292.404 7.02265 287.068 5.66642 281.895C3.71633 274.509 1.25265 267.247 2.36011 259.472C2.56254 258.049 3.00156 256.666 3.66016 255.379C4.78366 253.188 6.60537 251.2 4.80776 248.567C4.7442 248.437 4.71122 248.295 4.71122 248.152C4.71122 248.008 4.7442 247.866 4.80776 247.736C7.48812 242.843 5.94731 237.414 6.93439 232.365C8.32272 225.274 10.5216 218.338 12.4396 211.348C12.5599 210.897 13.2421 210.571 13.6192 210.198C13.9402 210.76 14.1908 211.357 14.3656 211.977C14.6625 213.81 14.839 215.658 15.0557 217.507L14.9514 217.406L15.5292 219.845C15.9476 219.164 16.2714 218.433 16.4922 217.67C16.7249 216.272 16.7249 214.835 16.8212 213.422L17.5435 211.845ZM14.9755 377.437L15.457 381.165C15.5693 379.736 15.7218 378.314 15.794 376.885C15.8275 376.169 15.7926 375.452 15.6897 374.742C15.6897 374.446 15.3687 374.19 15.2002 373.918C15.1044 374.169 15.0371 374.43 14.9995 374.695C14.9594 375.433 14.9755 376.155 14.9755 377.421V377.437ZM9.58264 381.406C9.58264 382.47 9.53449 382.912 9.58264 383.332C9.67426 383.856 9.79482 384.374 9.94378 384.885C10.016 384.326 10.1043 383.767 10.1524 383.208C10.1845 382.778 10.1845 382.347 10.1524 381.918C10.0722 380.839 9.95982 379.759 9.86352 378.687L9.58264 381.406ZM13.6754 297.017L12.592 294.882C12.3433 294.384 12.0865 293.887 11.8297 293.39C11.682 294.017 11.6199 294.659 11.6451 295.301C11.7986 295.843 12.1009 296.334 12.5198 296.722C12.7124 296.909 13.1618 296.885 13.6754 297.002V297.017ZM10.321 398.089L9.99996 395.899C9.84796 396.568 9.73541 397.245 9.6629 397.926C9.67357 398.448 9.72994 398.967 9.83142 399.479L10.321 398.089ZM13.7396 233.297V231.744C13.6513 232.412 13.547 233.072 13.4989 233.74C13.4989 234.291 13.4989 234.843 13.4989 235.394L13.7396 233.297ZM11.0512 288.443L9.83945 286.625C9.68918 287.004 9.61825 287.408 9.63079 287.814C9.84223 288.322 10.1114 288.807 10.4333 289.258L11.0512 288.443Z" fill="#3F8C65"/>
<path d="M394.036 131.659L394.79 130.797C396.495 134.624 397.539 138.696 397.88 142.851C398.008 145.702 397.438 148.575 397.278 151.449C397.133 153.997 397.093 156.56 397.109 159.115C397.109 161.127 397.398 163.138 397.342 165.142C397.286 167.146 396.652 169.104 396.828 171.037C397.117 174.292 398.193 177.445 396.307 180.676C395.777 181.593 396.764 183.239 396.58 184.482C395.673 190.47 395.609 196.482 395.344 202.509C395.183 206.175 394.012 209.802 393.305 213.445C393.159 213.857 393.128 214.3 393.217 214.727C396.307 221.197 392.543 227.83 393.666 234.393C394.004 236.342 393.923 238.711 391.708 240.536C390.777 241.313 391.428 243.744 391.155 245.399C390.665 248.381 389.823 251.317 389.477 254.315C388.779 260.365 388.129 266.439 387.808 272.521C387.584 276.676 388.145 280.87 387.993 285.033C387.704 292.707 388.747 300.389 388.41 307.985C388.129 314.47 387.888 320.932 388.001 327.402C388.121 334.431 388.458 341.499 385.826 348.303C385.401 349.406 385.866 350.827 385.914 352.101C386.267 351.037 386.661 349.989 386.966 348.917C388.651 343.06 390.32 337.199 391.973 331.332C392.304 330.224 392.572 329.098 392.776 327.961C393.49 323.418 394.06 318.859 394.854 314.33C396.433 305.206 397.144 295.961 396.981 286.711C396.925 282.299 397.727 277.872 397.783 273.453C397.864 266.362 397.607 259.27 397.559 252.187C397.559 247.239 397.173 242.253 397.751 237.367C398.289 232.816 400.159 228.428 400.961 223.884C402.647 213.616 406.145 203.612 405.929 193.057C405.929 192.226 406.499 191.403 406.571 190.556C406.723 188.669 408.176 186.672 406.097 184.902C405.76 184.614 405.937 183.791 405.857 183.216C405.383 179.496 404.894 175.783 404.42 172.071C404.348 171.519 404.292 170.96 404.236 170.408C404.735 170.835 405.175 171.323 405.544 171.861C406.158 172.861 406.605 173.949 406.868 175.084C407.67 180.381 408.842 185.678 409.051 190.999C409.299 197.492 408.384 204.024 408.585 210.517C408.938 221.554 404.942 231.861 403.369 242.564C402.221 250.369 401.387 258.136 402.165 266.012C402.318 266.868 402.318 267.743 402.165 268.598C400.737 274.113 401.659 279.55 402.574 285.002C402.767 286.152 403.24 287.379 403 288.451C401.274 295.962 404.131 303.511 402.791 310.975C401.547 317.88 400.383 324.761 396.973 331.208C394.044 336.761 393.008 343.006 392.712 349.297C392.631 351.006 392.35 352.715 392.118 354.424C391.46 359.084 390.4 363.744 390.184 368.451C389.694 379.464 389.558 390.501 389.381 401.53C389.261 408.054 389.55 414.61 389.14 421.118C388.763 427.014 387.696 432.878 386.934 438.75C385.553 449.313 381.372 458.85 375.626 467.821C373.275 471.503 371.14 475.316 368.709 478.944C364.696 484.901 358.934 489.041 352.907 492.846C348.157 495.852 343.558 499.301 338.398 501.445C330.868 504.654 323.065 507.226 315.077 509.134C296.251 513.421 277.769 510.765 259.849 504.474C250.259 501.126 242.435 494.897 235.437 487.798C229.506 481.779 225.004 474.742 220.928 467.464C219.09 464.179 217.958 460.52 216.466 457.056C216.1 456.157 215.632 455.3 215.069 454.501C214.339 453.499 212.999 452.637 214.885 451.511C214.92 451.449 214.938 451.379 214.938 451.309C214.938 451.238 214.92 451.169 214.885 451.107C212.212 448.528 213.882 445.196 213.456 442.276C212.164 433.484 213.504 424.777 216.49 416.396C219.266 408.629 224.041 402.19 230.493 396.629C235.124 392.637 239.754 388.862 245.3 386.221C252.98 382.532 261.117 381.561 269.591 381.872C276.894 382.113 283.001 385.608 289.518 388.023C290.599 388.535 291.58 389.226 292.415 390.066C301.788 398.19 305.624 408.474 304.829 420.474C304.524 425.134 302.181 428.963 298.907 432.303C295.633 435.643 292.238 438.61 287.158 438.827C278.018 439.216 271.293 437.926 267.312 429.786C265.28 425.522 265.073 420.653 266.734 416.241C268.251 411.806 274.808 408.746 279.655 409.616C282.793 410.183 284.43 413.895 282.801 416.722C282.564 417.224 282.371 417.744 282.223 418.276C282.825 417.95 283.643 417.763 283.988 417.266C285.93 414.478 285.288 408.35 282.175 405.491C277.095 400.831 271.245 397.344 263.853 397.429C260.122 397.476 256.382 397.499 252.667 397.755C244.642 398.299 238.904 403.06 233.126 407.752C227.348 412.443 224.113 418.781 221.682 425.616C220.004 430.304 219.385 435.286 219.868 440.225C220.751 449.724 223.311 458.866 228.447 467.021C232.243 473.064 236.271 479.029 242.451 483.27C248.164 487.2 253.357 491.93 259.351 495.363C267.224 499.876 275.787 503.013 285.232 503.06C291.211 503.06 297.189 503.588 303.16 503.456C312.277 503.254 320.743 500.349 329.306 497.53C338.133 494.648 344.938 489.149 352.065 483.837C360.298 477.709 366.269 469.856 371.397 461.313C378.026 450.214 380.626 438.105 381.589 425.515C381.942 420.917 382.72 416.35 382.993 411.744C383.314 406.4 383.25 401.041 383.435 395.689C383.555 392.062 383.924 388.451 383.988 384.816C384.133 376.707 384.261 368.598 384.197 360.49C384.109 350.789 383.724 341.072 383.627 331.379C383.579 326.043 384.101 320.707 382.375 315.472C382.021 314.197 382.043 312.852 382.439 311.589C384.63 304.459 384.101 297.15 383.523 289.958C383.078 283.585 383.347 277.183 384.325 270.866C385.128 265.29 384.414 259.853 383.675 254.377C382.672 246.89 381.934 239.356 380.57 231.938C379.173 224.397 377.239 216.948 375.385 209.5C373.363 201.36 370.57 193.469 369.712 184.971C368.805 175.954 370.907 167.41 371.846 158.672C372.376 153.787 374.045 148.987 372.697 144.001C372.565 143.428 372.565 142.834 372.697 142.261C373.775 136.859 373.978 131.327 373.299 125.865C373.289 125.303 373.335 124.741 373.435 124.187C373.818 124.696 374.154 125.237 374.439 125.803C377.023 132.366 376.605 139.177 376.18 145.997C375.939 149.88 375.249 153.865 375.682 157.702C376.087 161.903 375.684 166.14 374.495 170.199C373.04 175.557 373.132 181.198 374.76 186.509C376.814 193.577 378.571 200.731 380.305 207.876C380.634 209.243 380.136 210.773 380.257 212.202C380.522 215.496 381.059 218.758 381.26 222.051C381.541 226.338 383.25 230.074 385.449 233.701C385.987 234.587 385.449 236.032 385.738 237.111C386.219 239.05 386.822 240.959 387.543 242.828C387.656 243.123 388.506 243.162 389.02 243.317C389.084 242.929 389.357 242.385 389.189 242.175C385.577 237.771 386.308 232.016 384.309 227.022C382.311 222.028 380.377 215.993 382.038 210.051C382.171 209.631 382.201 209.187 382.126 208.754C380.794 203.27 379.414 197.787 378.114 192.303C377.681 190.507 377.312 188.694 377.007 186.867C376.726 185.173 376.549 183.465 376.356 181.756C376.165 180.938 376.119 180.095 376.22 179.263C378.628 170.137 381.131 161.034 383.523 151.907C383.964 150.222 383.884 148.42 384.325 146.735C384.703 145.181 384.999 143.325 386.075 142.393C388.619 140.179 389.63 137.5 390.224 134.416C390.609 132.428 391.692 130.836 394.301 131.527C394.02 133.958 393.739 136.389 393.498 138.828C393.47 139.244 393.47 139.662 393.498 140.078C393.779 139.76 394.18 139.488 394.301 139.123C395.167 136.653 395.392 134.175 394.036 131.659ZM292.8 424.474C293.313 423.091 293.851 421.724 294.333 420.334C294.389 420.163 294.156 419.891 294.06 419.674C293.626 421.018 293.177 422.353 292.776 423.705C292.757 423.988 292.793 424.273 292.88 424.544C292.274 424.876 291.71 425.278 291.203 425.74C290.914 426.058 290.954 426.649 290.842 427.115C291.23 426.915 291.58 426.652 291.877 426.338C292.231 425.734 292.54 425.106 292.8 424.458V424.474ZM390.432 171.581C389.983 169.166 389.63 167.045 389.156 164.956C389.028 164.397 388.442 163.931 388.065 163.403C388.077 163.953 388.117 164.503 388.185 165.049C388.595 167.309 389.189 169.546 389.405 171.822C389.404 173.204 389.248 174.581 388.94 175.931C389.421 174.447 389.959 172.956 390.432 171.566V171.581ZM284.149 430.439C285.401 430.089 286.701 429.779 287.953 429.344C288.298 429.219 288.514 428.73 288.755 428.404C288.326 428.324 287.892 428.275 287.455 428.256C285.433 428.303 283.443 428.443 281.404 428.404C280.6 428.288 279.815 428.071 279.069 427.759C279.67 428.384 280.343 428.939 281.075 429.414C282.069 429.835 283.097 430.178 284.149 430.439ZM387.263 156.218C387.399 157.523 387.439 158.245 387.567 158.952C387.567 159.162 387.888 159.333 388.065 159.527C388.14 159.274 388.183 159.013 388.193 158.75C387.873 155.451 388.46 152.128 389.895 149.119C389.999 148.909 389.895 148.583 389.895 148.342C389.622 148.521 389.148 148.645 389.092 148.878C388.378 151.48 387.76 154.129 387.263 156.218ZM384.895 185.259C385.465 187.201 386.011 189.142 386.58 191.006C386.73 191.393 386.907 191.769 387.11 192.133C387.162 191.713 387.178 191.289 387.158 190.867C386.925 188.894 386.685 186.921 386.356 184.956C386.21 184.537 385.996 184.144 385.722 183.791L384.895 185.259Z" fill="#3F8C65"/>
<path d="M244.38 25.6085C244.592 25.2629 244.89 24.9744 245.247 24.7697C246.852 23.993 247.173 22.8046 246.948 21.158C246.547 18.3309 246.355 15.4648 246.074 12.6144C246.074 12.4668 245.961 12.2493 246.026 12.1872C249.508 8.94835 248.939 2.76584 254.693 1.11924C257.662 0.264871 258.954 0.653218 260.511 3.38719C261.008 4.24933 261.674 5.01826 262.188 5.86486C262.429 6.26874 262.758 7.02991 262.589 7.20078C259.973 9.86485 262.477 10.16 264.299 10.8202C268.624 12.3736 268.375 12.4202 268.399 16.7153C268.434 20.0346 268.862 23.339 269.675 26.5638C270.478 29.9114 272.035 33.1036 273.158 36.3891C273.439 37.1911 273.503 38.0496 273.343 38.8823C271.914 45.4298 271.168 51.9463 274.033 58.3385C275.694 62.0278 274.972 65.9424 275.14 69.7482C275.197 70.8589 273.808 72.3424 272.685 73.1268C268.728 75.9074 266.265 79.387 265.462 84.1559C265.263 84.8367 264.921 85.4703 264.457 86.0169C263.993 86.5636 263.417 87.0115 262.766 87.3326C260.358 88.4666 257.742 89.7792 255.206 89.7792C250.568 89.7792 246.844 91.8375 242.968 93.6239C239.851 95.1466 237.365 97.6539 235.922 100.731C235.569 101.422 234.582 101.802 233.884 102.323C233.45 101.647 232.744 101.01 232.616 100.28C231.97 96.4043 230.231 92.776 227.592 89.7948C227.167 89.3054 227.335 87.8219 227.801 87.2006C229.47 84.9792 231.653 83.0841 233.137 80.7773C234.657 78.3286 235.89 75.7235 236.813 73.0103C237.852 70.1667 238.644 67.2439 239.18 64.2725C239.404 62.1561 239.431 60.0246 239.26 57.9036C239.26 57.3443 238.634 56.6298 238.835 56.2647C240.994 52.3813 238.45 48.6298 238.498 44.8085C238.498 43.2007 237.583 41.492 236.789 39.9774C234.558 35.7677 236.083 32.3658 240.881 31.1619C243.915 30.393 244.645 29.4143 244.38 25.6085ZM256.209 17.7328C255.843 18.3502 255.521 18.9912 255.246 19.6512C253.015 26.6415 254.043 33.6939 255.246 40.7153C255.31 41.0648 255.76 41.3521 256.049 41.6706C256.265 41.2279 256.675 40.7852 256.667 40.3424C256.63 39.3301 256.493 38.3235 256.257 37.3366C255.017 32.3996 254.834 27.269 255.72 22.2609C255.944 21.1347 256.322 20.0473 256.562 18.9289C256.619 18.6726 256.418 18.3619 256.209 17.7328ZM254.837 56.4278C254.837 55.822 254.885 54.9521 254.837 54.0978C254.722 53.7223 254.543 53.368 254.307 53.0492C253.97 53.4298 253.312 53.8259 253.344 54.191C253.815 57.9182 253.226 61.6989 251.643 65.1269C251.547 65.3288 251.699 65.6395 251.739 65.9036C252.076 65.7327 252.542 65.6395 252.734 65.3676C254.527 62.7305 255.285 59.5589 254.869 56.4278H254.837ZM241.917 82.8355C242.285 82.6571 242.635 82.4438 242.96 82.1987C244.148 80.987 245.303 79.7598 246.451 78.5171C246.451 78.5171 246.298 78.3074 246.218 78.1987C244.854 79.4025 243.482 80.5987 242.141 81.8259C242.013 81.9657 242.053 82.3229 241.949 82.8278L241.917 82.8355Z" fill="#3F8C65"/>
<path d="M215.279 43.6979C215.279 40.1562 215.279 36.6067 215.279 33.0649C215.26 32.772 215.303 32.4784 215.408 32.2028C217.093 28.7543 218.345 25.5465 217.278 21.329C216.411 17.9116 221.354 14.8358 225.134 15.6048C225.831 15.8551 226.548 16.0525 227.277 16.1951C228.264 16.1951 230.037 15.7368 230.11 15.931C230.59 17.1457 230.796 18.4463 230.711 19.7446C230.254 24.2882 230.294 28.8863 227.622 33.0416C225.768 35.9309 226.089 39.1775 227.999 42.1134C229.218 43.8583 229.999 45.8553 230.277 47.9445C230.556 50.0337 230.326 52.1571 229.604 54.1445C229.399 55.1076 229.356 56.0962 229.476 57.0727C229.476 57.6474 229.821 58.2843 229.644 58.7736C228.304 62.5328 226.876 66.261 225.471 69.9969C225.404 70.1254 225.329 70.2499 225.246 70.3697L223.272 74.4474C222.719 72.7309 222.052 71.0377 221.667 69.2901C221.21 67.3173 220.985 65.2901 220.648 63.294C220.312 60.8577 219.274 58.5619 217.655 56.6688C215.167 53.826 213.506 50.6882 215.151 46.7426C215.52 45.8649 215.207 44.7309 215.207 43.7212L215.279 43.6979ZM219.717 36.9872L219.428 37.0572C220.014 40.1639 220.576 43.2707 221.234 46.3775C221.346 46.8979 221.892 47.3328 222.237 47.8066C222.306 47.2475 222.328 46.6838 222.301 46.1212C221.788 41.9736 221.21 37.8416 220.696 33.6941C220.669 32.7126 220.725 31.7306 220.865 30.7581C220.402 31.7953 220.021 32.865 219.725 33.9581C219.613 34.9642 219.597 35.9783 219.677 36.9872H219.717Z" fill="#3F8C65"/>
<path d="M179.104 67.0766C178.756 64.0585 179.161 61.0037 180.284 58.1679C180.722 57.0744 180.853 55.8877 180.663 54.7291C180.473 53.5705 179.968 52.4817 179.2 51.5738C178.033 50.1575 177.234 48.4902 176.873 46.7126C176.511 44.9349 176.596 43.0992 177.122 41.3602C177.623 38.9681 177.342 36.4843 176.319 34.2534C175.067 31.535 175.107 29.2126 176.552 26.8282C177.836 24.7156 179.409 22.7583 180.725 20.6534C181.48 19.6565 181.973 18.497 182.161 17.2748C182.21 15.4263 182.844 14.7117 184.569 15.4962C185.303 15.8495 186.118 16.0157 186.936 15.979C187.755 15.9423 188.551 15.7039 189.248 15.2865C190.021 14.991 190.83 14.7901 191.655 14.6884C191.604 15.639 191.462 16.5828 191.23 17.5078C190.524 19.535 189.488 21.469 188.903 23.5272C187.442 28.568 190.435 32.7932 192 37.2204C192.554 38.7738 192.602 39.5505 191.623 41.0262C189.422 44.2655 187.541 47.6981 186.005 51.2786C184.136 55.667 182.795 60.2572 181.271 64.7776C180.894 65.9038 180.773 67.1466 179.072 66.9757L179.104 67.0766ZM182.723 38.4165C182.723 36.8631 182.723 35.2476 182.643 33.6631C182.585 33.2459 182.497 32.8332 182.378 32.4282C182.242 32.7699 181.945 33.1272 181.985 33.4457C182.202 35.0845 182.515 36.7155 182.787 38.3466C182.996 39.4495 183.197 40.5602 183.437 41.6553C183.638 42.5563 183.895 43.4495 184.128 44.3427C184.296 43.37 184.326 42.3795 184.216 41.399C183.836 40.3536 183.335 39.3531 182.723 38.4165Z" fill="#3F8C65"/>
<path d="M211.571 30.6573C211.114 32.7078 210.769 34.5408 210.279 36.3816C210.044 36.9968 209.74 37.5854 209.372 38.1369C208.939 37.7486 208.297 37.4301 208.113 36.9563C206.909 33.7796 203.346 31.333 205.047 27.2243C205.384 26.401 205.047 25.2127 204.75 24.2573C204.448 23.5083 204.061 22.7945 203.594 22.1292C203.575 22.9296 203.628 23.7302 203.755 24.5214C204.798 28.6845 203.193 31.7991 199.076 33.3292C198.628 33.3604 198.183 33.2395 197.816 32.9874C198.049 30.9525 198.402 28.9253 198.675 26.8903C199.301 22.2301 203.859 20.3583 206.267 16.9641C206.427 16.7389 207.647 17.2127 208.369 17.3913C208.458 17.3913 208.506 17.6399 208.538 17.7797C209.565 22.1292 210.592 26.4864 211.571 30.6573Z" fill="#3F8C65"/>
<path d="M208.859 302.175C210.898 300.179 213.08 300.186 214.356 302.408C215.512 304.412 216.563 306.516 215.472 308.986C214.613 310.936 215.143 312.715 215.937 314.726C216.804 316.916 216.676 319.495 216.908 321.903C216.908 322.144 216.451 322.431 216.202 322.68C215.929 322.384 215.4 322.089 215.4 321.786C215.343 315.876 211.668 311.938 207.599 308.179C204.967 305.748 205.368 304.039 208.955 302.05C208.771 302.563 208.257 303.262 208.442 303.604C209.758 305.802 211.219 307.922 212.663 310.043C212.663 310.043 213.305 309.833 213.345 309.654C214.236 306.089 212.583 303.379 208.859 302.175Z" fill="#3F8C65"/>
<path d="M354.958 44.8548L353.73 43.814C356.86 40.249 361.755 39.9305 365.64 37.7325C365.784 37.647 366.129 37.88 366.378 37.9655C366.212 38.2038 366.012 38.4182 365.784 38.6024C362.181 40.7227 358.57 42.7965 354.958 44.8548Z" fill="#3F8C65"/>
<path d="M17.5442 211.845L16.7416 213.453L14.8718 217.437L14.9761 217.538C14.8558 214.525 14.6391 211.519 14.6712 208.513C14.6712 207.868 15.562 207.231 16.0435 206.587C16.525 207.061 17.3275 207.48 17.4157 208.016C17.5592 209.287 17.6021 210.567 17.5442 211.845Z" fill="#3F8C65"/>
<path d="M178.993 66.9756C179.98 69.4222 178.134 71.2241 177.388 73.2746C177.27 73.4333 177.113 73.5602 176.93 73.6432C176.747 73.7261 176.546 73.7624 176.344 73.7484C176.174 73.6458 176.031 73.5059 175.926 73.34C175.822 73.1741 175.759 72.9867 175.743 72.793C175.566 70.2066 177.348 68.6377 179.073 67.0765L178.993 66.9756Z" fill="#3F8C65"/>
<path d="M211.509 319.806C212.192 321.313 212.818 322.198 212.922 323.138C212.878 323.486 212.74 323.816 212.524 324.097C212.307 324.378 212.018 324.599 211.686 324.738C209.816 324.994 209.559 323.472 209.583 322.237C209.6 321.616 210.466 321.025 211.509 319.806Z" fill="#3F8C65"/>
<path d="M372.628 34.983L369.418 36.2878C369.418 36.1014 369.29 35.783 369.354 35.7441C370.237 35.2548 371.136 34.8043 372.042 34.3694C372.115 34.3538 372.323 34.6412 372.628 34.983Z" fill="#3F8C65"/>
</svg>
