<svg width="215" height="548" viewBox="0 0 215 548" fill="none" xmlns="http://www.w3.org/2000/svg">
<path d="M209.058 64.6189C203.247 60.8594 196.737 64.1369 190.877 66.0649C190.75 64.24 190.517 62.4241 190.178 60.6265C187.971 51.0912 182.103 43.2108 174.188 37.5716C166.964 32.4465 158.575 29.2494 150.107 26.7189C153.173 19.4892 151.391 11.0223 143.966 7.30303C141.667 6.18259 139.113 5.69263 136.563 5.88315C134.013 6.07367 131.56 6.93787 129.453 8.3875C129.136 8.68657 128.716 8.85322 128.281 8.85342C128.009 8.78492 127.76 8.64645 127.558 8.45177C124.966 6.37924 122.894 4.25851 119.788 2.87682C116.344 1.42858 112.691 0.539135 108.967 0.241976C99.4952 -0.697892 86.0737 0.812321 80.7196 9.92984C80.3263 10.5966 79.8205 11.1991 79.3229 11.8979C74.9079 9.48802 70.3324 6.82909 65.0746 7.81716C63.4084 8.12117 61.8356 8.8084 60.4802 9.82466C59.1247 10.8409 58.0238 12.1584 57.2641 13.6733C55.4339 17.6095 57.0795 20.4291 59.0382 23.819C55.9397 26.2289 51.7575 27.3054 48.2416 29.153C41.7655 32.578 36.0352 37.2585 31.3845 42.9216C26.3434 49.0348 23.7185 55.4452 21.2381 62.8195C20.7105 62.7327 20.188 62.6174 19.6728 62.4741C9.05281 58.4576 -1.89628 67.6233 1.25841 78.8696C2.13337 82.0105 4.62983 85.7137 7.88887 86.7902C10.7546 87.7381 14.8966 85.288 17.1282 88.0835C17.633 88.8486 17.9544 89.7201 18.0674 90.63C20.5558 102.198 28.0371 112.199 37.0356 119.878C46.1706 127.678 57.505 132.9 69.1925 127.502C71.7211 134.571 78.4961 135.808 84.7573 138.33C85.7286 138.716 84.8616 147.319 84.8536 148.46C84.8536 164.526 84.5325 180.648 84.1151 196.739C83.9144 204.772 83.7218 212.805 83.4488 220.838C83.2 228.293 83.6094 235.932 82.6461 243.379C82.1901 247.184 81.2653 250.918 79.8928 254.496C78.472 258.111 75.3253 260.987 74.2176 264.562C73.8546 265.756 73.7855 267.02 74.0162 268.247C74.2468 269.474 74.7703 270.626 75.5421 271.607C77.8619 274.523 82.028 273.904 84.7091 276.37C84.858 276.478 84.9807 276.617 85.0683 276.779C85.1559 276.94 85.206 277.119 85.2148 277.302C85.2148 277.672 84.8375 277.921 84.5245 278.106C82.0682 279.64 79.2025 280.443 76.8184 282.122C74.9272 283.447 73.4258 285.255 72.4705 287.358C71.5152 289.462 71.141 291.783 71.3869 294.08C71.6329 296.377 72.4899 298.566 73.8688 300.419C75.2476 302.272 77.0978 303.721 79.2265 304.615C80.7678 305.265 82.7505 305.988 82.8548 307.651C82.8347 308.181 82.668 308.696 82.3732 309.137C82.0785 309.578 81.6672 309.928 81.1852 310.149C80.262 310.655 79.2024 310.872 78.2392 311.298C75.1246 312.656 73.2623 316.198 73.4229 319.588C73.6797 324.713 79.1302 327.686 80.4065 332.441C83.8903 345.439 82.6381 359.28 82.6622 372.606C82.7424 426.803 82.9485 480.999 83.2803 535.196C83.2803 541.06 84.7091 545.687 90.9302 547.06C99.343 548.899 108.122 548.025 116.007 544.562C116.701 544.3 117.339 543.908 117.885 543.405C118.688 542.554 118.632 541.212 119.371 540.409C120.109 539.606 121.618 539.654 122.581 539.67C126.493 539.734 130.405 539.734 134.317 539.67C135.706 539.67 137.343 539.622 138.09 538.256C139.085 536.441 138.644 533.268 138.764 531.235C138.756 531.155 138.779 531.074 138.828 531.01C138.899 530.962 138.984 530.939 139.069 530.946C144.11 530.946 149.248 531.292 154.273 530.834C160.229 530.295 160.221 530.167 160.325 536.087C160.422 540.859 161.353 541.71 166.169 541.614C173.064 541.494 179.96 541.341 186.855 541.413C192.185 541.477 192.94 540.955 192.98 535.525C193.028 528.215 192.884 520.905 192.98 513.595C192.945 511.386 192.383 509.217 191.341 507.27C190.3 505.322 188.809 503.651 186.992 502.397C186.418 502.082 185.952 501.604 185.651 501.023C185.21 499.85 186.309 498.717 187.2 497.81C192.298 492.765 193.253 485.069 192.956 478.241C192.675 471.951 191.495 465.678 192.041 459.404C192.257 456.946 193.277 452.977 189.865 452.68C186.871 452.431 183.805 452.503 180.803 452.471C177.421 452.434 174.038 452.434 170.656 452.471C168.417 452.511 163.488 451.668 161.826 453.395C159.515 455.805 162.974 461.227 159.571 462.874C158.905 463.135 158.187 463.234 157.476 463.163L141.582 462.834C141.027 462.879 140.471 462.767 139.976 462.512C138.596 461.645 139.39 459.564 139.447 457.942C139.535 455.042 136.605 452.825 133.739 452.423C130.873 452.021 127.992 452.881 125.118 453.291C113.623 454.945 114.329 442.775 113.992 434.574C113.454 421.448 113.992 408.297 113.808 395.171C113.607 379.33 112.515 355.938 117.588 343.27C121.714 332.947 123.208 330.529 123.208 330.529C126.491 325.3 128.955 323.299 129.035 319.371C129.091 316.351 127.43 313.499 125.222 311.443C123.015 309.386 120.278 307.989 117.588 306.623C122.212 304.109 126.748 300.614 128.361 295.594C129.221 292.611 128.996 289.421 127.728 286.588C126.46 283.756 124.23 281.465 121.434 280.122C119.772 279.391 117.556 278.411 117.845 276.619C118.054 275.326 119.451 274.708 120.615 274.049C121.781 273.355 122.778 272.41 123.532 271.281C124.286 270.153 124.779 268.87 124.974 267.526C125.672 262.465 121.048 257.822 119.957 252.93C118.712 247.355 118.881 241.595 118.415 235.932C117.564 225.65 116.791 215.362 116.095 205.069C115.726 199.598 112.571 139.857 112.724 139.857C120.029 137.905 126.033 134.579 129.621 127.871C138.17 129.622 144.648 130.651 153.462 128.763C169.573 125.301 183.965 116.512 191.342 101.314C192.401 98.8242 193.627 96.4088 195.011 94.0842C196.997 91.2695 199.842 89.1753 203.118 88.1156C207.654 86.4447 211.635 83.5448 213.554 78.7089C214.478 76.218 214.546 73.49 213.748 70.9559C212.95 68.4217 211.331 66.2259 209.147 64.7153L209.058 64.6189ZM136.814 495.127C137.212 494.136 137.907 493.294 138.804 492.717C140.153 491.914 141.831 491.97 143.404 492.058C144.977 492.146 147.048 491.962 148.662 492.355C149.794 492.636 150.604 493.665 151.768 492.645C152.37 492.114 152.346 490.893 152.362 490.235C152.362 487.825 153.101 485.23 155.108 483.72C157.604 481.832 160.823 482.523 163.48 483.672C164.812 484.168 166.021 484.949 167.02 485.961C168.121 487.257 168.694 488.92 168.625 490.62C168.592 492.156 168.172 493.659 167.405 494.99C166.699 496.187 165.599 497.4 165.72 498.854C165.917 499.824 166.328 500.738 166.924 501.529C168.32 503.939 168.81 507.152 167.558 509.675C166.145 512.55 162.469 513.82 159.418 513.691C158.138 513.654 156.881 513.334 155.739 512.753C154.597 512.173 153.597 511.346 152.812 510.333C152.162 509.45 151.704 508.438 151.102 507.514C149.802 505.513 148.975 505.594 146.984 506.349C145.162 507.03 143.186 507.194 141.277 506.823C139.944 506.618 138.713 505.987 137.769 505.023C135.858 502.879 135.393 498.179 136.782 495.127H136.814ZM164.756 98.5184C164.146 101.177 163.058 103.703 161.545 105.973C159.807 108.502 157.671 110.732 155.22 112.576C154.498 113.131 148.798 117.348 147.811 116.223C147.666 116.063 147.353 115.87 147.353 115.685C147.353 111.411 143.484 108.6 139.495 108.15C134.767 107.604 131.026 109.652 128.064 113.098C126.828 114.536 125.535 114.472 124.556 112.93C122.204 109.235 118.006 107.644 113.808 107.138C112.379 106.969 110.822 106.841 109.794 105.853C108.598 104.72 108.285 102.937 106.993 101.836C105.387 100.39 102.979 100.101 100.828 100.101C98.3633 100.101 95.0561 100.101 92.8005 101.137C90.1676 102.326 89.413 104.455 86.6356 105.234C83.3846 106.134 80.6554 107.009 78.6084 109.974C77.4285 111.677 75.7989 111.982 73.9446 111.026C72.9411 110.432 72.0022 109.734 71.1431 108.945C69.2233 107.267 67.0036 105.967 64.601 105.114C60.4509 103.748 54.8881 104.632 52.3996 108.576C52.2638 108.863 52.0459 109.103 51.7735 109.267C51.5406 109.325 51.2972 109.328 51.0629 109.275C50.8287 109.222 50.6101 109.114 50.425 108.961C42.5824 104.037 39.4036 94.5742 43.5617 86.2038C44.496 84.083 46.097 82.3256 48.1212 81.1992C48.8517 80.8319 49.6475 80.6124 50.4629 80.5531C51.2783 80.4939 52.0973 80.596 52.8733 80.8537C54.4787 81.4241 55.5784 82.9423 57.3845 83.0307C58.0346 83.0435 58.6809 82.9289 59.287 82.6933C65.0023 80.7332 67.547 74.6602 67.3142 68.9568C67.0493 62.7954 63.0116 57.1883 56.919 55.6862C55.7092 55.4839 54.5114 55.2157 53.3308 54.8829C52.7388 54.71 52.1909 54.4118 51.7242 54.0084C51.2575 53.6051 50.8828 53.1061 50.6256 52.5452C49.4296 49.332 54.7998 47.637 56.7343 46.3678C58.5244 45.1869 60.4429 44.6327 62.2972 43.6205C64.2799 42.52 66.2466 41.3873 68.157 40.1502C70.367 38.7386 72.4656 37.1595 74.4343 35.4268C75.43 34.5455 76.376 33.6095 77.2679 32.6232C77.9342 31.8842 79.2988 29.8197 80.3022 31.1211C80.9734 32.0539 81.8084 32.8568 82.7665 33.4908C85.1279 34.894 87.6767 35.9543 90.3362 36.6398C91.2754 36.9209 92.2306 37.186 93.1778 37.4431C98.631 38.9273 104.318 39.35 109.931 38.6882C113.407 38.3316 116.796 37.3777 119.948 35.8686C121.407 35.0335 122.732 33.9857 123.882 32.7598C124.861 31.8199 126.29 30.0366 127.783 30.0848C128.698 30.0848 129.164 30.6551 129.822 31.2094C135.842 36.198 142.665 40.0458 149.384 43.974C153.823 46.6917 158.073 49.7056 162.107 52.9951C164.05 54.5294 166.843 58.9636 163.713 60.755C162.702 61.2305 161.615 61.5242 160.502 61.6226C155.812 62.4982 151.658 65.1918 148.943 69.1174C146.053 73.3428 144.327 80.0183 147.337 84.5409C150.123 88.7101 155.413 91.369 160.381 89.7062C160.983 89.4973 161.537 89.1519 162.284 88.7984C165.117 91.3208 165.519 94.9678 164.756 98.5184Z" fill="#3F8C65"/>
</svg>
