<svg width="12" height="32" viewBox="0 0 12 32" fill="none" xmlns="http://www.w3.org/2000/svg">
<path d="M0.294502 4.31037C0.621012 4.1005 0.986754 4.28346 1.31597 4.39109C1.32309 4.28922 1.33619 4.18785 1.35521 4.0875C1.47923 3.55521 1.80889 3.1153 2.25356 2.8005C2.65944 2.5144 3.13072 2.33592 3.6065 2.19467C3.43423 1.79108 3.53434 1.31843 3.9515 1.1108C4.08064 1.04826 4.22416 1.02091 4.36741 1.03154C4.51066 1.04218 4.6485 1.09042 4.76687 1.17134C4.78468 1.18804 4.80824 1.19734 4.83271 1.19735C4.84798 1.19353 4.86197 1.1858 4.8733 1.17493C5.01897 1.05924 5.13532 0.940849 5.30985 0.863719C5.50334 0.782873 5.70856 0.733221 5.91777 0.716633C6.44993 0.664166 7.20397 0.748472 7.50477 1.25744C7.52687 1.29466 7.55528 1.32829 7.58324 1.36731C7.83128 1.23278 8.08834 1.08435 8.38373 1.13951C8.47734 1.15648 8.5657 1.19484 8.64185 1.25157C8.718 1.3083 8.77986 1.38185 8.82253 1.46641C8.92536 1.68614 8.83291 1.84354 8.72287 2.03278C8.89695 2.16731 9.13191 2.2274 9.32944 2.33054C9.69327 2.52174 10.0152 2.78302 10.2765 3.09916C10.5597 3.44041 10.7072 3.79826 10.8465 4.20992C10.8762 4.20508 10.9055 4.19864 10.9345 4.19064C11.5311 3.96642 12.1463 4.47808 11.969 5.10589C11.9199 5.28123 11.7796 5.48796 11.5965 5.54805C11.4355 5.60096 11.2028 5.46419 11.0774 5.62024C11.0491 5.66295 11.031 5.7116 11.0247 5.7624C10.8849 6.40814 10.4646 6.96644 9.959 7.39514C9.44579 7.83057 8.80901 8.12205 8.15238 7.8207C8.01032 8.21532 7.62969 8.28438 7.27793 8.42519C7.22336 8.44671 7.27207 8.92698 7.27252 8.99066C7.27252 9.88753 7.29056 10.7875 7.31401 11.6857C7.32528 12.1342 7.3361 12.5826 7.35144 13.031C7.36542 13.4472 7.34242 13.8736 7.39654 14.2893C7.42215 14.5018 7.47411 14.7102 7.55122 14.91C7.63105 15.1118 7.80783 15.2723 7.87006 15.4719C7.89045 15.5385 7.89434 15.6091 7.88138 15.6776C7.86842 15.746 7.83901 15.8104 7.79565 15.8651C7.66532 16.0279 7.43126 15.9934 7.28063 16.1311C7.27227 16.137 7.26537 16.1448 7.26045 16.1538C7.25554 16.1628 7.25272 16.1728 7.25222 16.1831C7.25222 16.2037 7.27342 16.2176 7.29101 16.2279C7.42901 16.3136 7.59001 16.3584 7.72395 16.4521C7.8302 16.5261 7.91455 16.627 7.96822 16.7444C8.02189 16.8619 8.04291 16.9914 8.0291 17.1197C8.01528 17.2479 7.96713 17.3701 7.88966 17.4735C7.8122 17.577 7.70825 17.6578 7.58865 17.7077C7.50207 17.7441 7.39067 17.7844 7.38481 17.8772C7.38594 17.9068 7.39531 17.9356 7.41187 17.9602C7.42843 17.9848 7.45153 18.0044 7.47861 18.0167C7.53048 18.045 7.59001 18.0571 7.64412 18.0808C7.8191 18.1566 7.92373 18.3544 7.91471 18.5436C7.90028 18.8297 7.59407 18.9956 7.52236 19.2611C7.32663 19.9867 7.39699 20.7593 7.39563 21.5033C7.39112 24.5287 7.37955 27.5541 7.36091 30.5796C7.36091 30.9069 7.28063 31.1652 6.93112 31.2419C6.45848 31.3445 5.96528 31.2957 5.52226 31.1024C5.48325 31.0878 5.44743 31.0659 5.41673 31.0378C5.37164 30.9903 5.37479 30.9154 5.3333 30.8706C5.29181 30.8257 5.20703 30.8284 5.15291 30.8293C4.93313 30.8329 4.71335 30.8329 4.49358 30.8293C4.41556 30.8293 4.32356 30.8266 4.28162 30.7504C4.22569 30.6491 4.2505 30.4719 4.24373 30.3585C4.24421 30.354 4.24291 30.3495 4.24013 30.3459C4.23617 30.3432 4.23139 30.3419 4.2266 30.3423C3.94338 30.3423 3.65475 30.3616 3.37244 30.3361C3.03781 30.306 3.03826 30.2988 3.0324 30.6293C3.02699 30.8957 2.97468 30.9432 2.70409 30.9378C2.3167 30.9311 1.9293 30.9226 1.54191 30.9266C1.24246 30.9302 1.20007 30.9011 1.19781 30.5979C1.19511 30.1899 1.20323 29.7818 1.19781 29.3737C1.19979 29.2504 1.23134 29.1294 1.28986 29.0206C1.34838 28.9119 1.43217 28.8186 1.53425 28.7486C1.56645 28.731 1.59267 28.7043 1.60956 28.6719C1.63436 28.6064 1.57258 28.5432 1.52252 28.4925C1.23615 28.2109 1.18248 27.7813 1.19917 27.4002C1.21495 27.049 1.28125 26.6988 1.25058 26.3486C1.2384 26.2114 1.18113 25.9898 1.37279 25.9733C1.54101 25.9593 1.71329 25.9634 1.88195 25.9616C2.07197 25.9595 2.26198 25.9595 2.45199 25.9616C2.57781 25.9638 2.85471 25.9167 2.94807 26.0132C3.07795 26.1477 2.88358 26.4504 3.07479 26.5423C3.11219 26.5569 3.15253 26.5624 3.1925 26.5585L4.08544 26.5401C4.1166 26.5426 4.14784 26.5364 4.17564 26.5221C4.2532 26.4737 4.20856 26.3576 4.2054 26.267C4.20044 26.1051 4.36505 25.9813 4.52605 25.9589C4.68705 25.9365 4.84895 25.9845 5.0104 26.0073C5.6562 26.0997 5.61652 25.4203 5.63546 24.9625C5.66567 24.2297 5.63546 23.4957 5.64583 22.7629C5.6571 21.8786 5.71844 20.5728 5.43342 19.8656C5.20162 19.2894 5.11773 19.1544 5.11773 19.1544C4.93328 18.8625 4.79483 18.7508 4.79032 18.5315C4.78717 18.3629 4.88052 18.2037 5.00454 18.0889C5.12856 17.9741 5.28234 17.8961 5.43342 17.8198C5.17366 17.6795 4.91885 17.4844 4.8282 17.2042C4.77991 17.0377 4.79251 16.8596 4.86376 16.7014C4.93501 16.5433 5.06031 16.4154 5.2174 16.3405C5.31075 16.2997 5.43522 16.245 5.41899 16.145C5.40726 16.0728 5.32879 16.0382 5.2634 16.0015C5.19787 15.9627 5.14188 15.91 5.09951 15.847C5.05714 15.784 5.02947 15.7123 5.01852 15.6373C4.97928 15.3548 5.23905 15.0956 5.30038 14.8225C5.37028 14.5113 5.36081 14.1898 5.38697 13.8736C5.43477 13.2997 5.47822 12.7254 5.5173 12.1508C5.53805 11.8454 5.71528 8.51039 5.70671 8.51039C5.29632 8.40142 4.95899 8.21577 4.7574 7.84133C4.27711 7.93909 3.91317 7.99649 3.41799 7.89111C2.51287 7.69783 1.70427 7.20724 1.28981 6.35881C1.23032 6.21983 1.16146 6.08499 1.08372 5.95522C0.972124 5.7981 0.812301 5.68119 0.628225 5.62204C0.373422 5.52876 0.149735 5.36688 0.0419512 5.09692C-0.00996399 4.95787 -0.0138044 4.80558 0.0310316 4.66412C0.0758686 4.52266 0.166828 4.40008 0.289542 4.31575L0.294502 4.31037ZM4.35332 28.3428C4.33097 28.2875 4.29188 28.2405 4.24148 28.2082C4.16572 28.1634 4.07146 28.1665 3.98307 28.1715C3.89467 28.1764 3.77832 28.1661 3.68768 28.1881C3.62409 28.2038 3.57854 28.2612 3.51315 28.2042C3.47932 28.1746 3.48068 28.1064 3.47977 28.0697C3.47977 27.9351 3.43828 27.7903 3.32554 27.706C3.18528 27.6006 3.00444 27.6392 2.85517 27.7033C2.7803 27.731 2.71243 27.7746 2.65628 27.8311C2.59443 27.9035 2.56223 27.9963 2.56609 28.0912C2.56796 28.177 2.59153 28.2609 2.63464 28.3351C2.67432 28.402 2.73611 28.4697 2.72934 28.5508C2.71825 28.605 2.69514 28.656 2.6617 28.7002C2.58323 28.8347 2.55572 29.0141 2.62607 29.1549C2.70544 29.3154 2.91199 29.3863 3.08336 29.3791C3.15531 29.377 3.2259 29.3592 3.29007 29.3267C3.35425 29.2943 3.41041 29.2482 3.45452 29.1917C3.49105 29.1423 3.51676 29.0858 3.55058 29.0343C3.62364 28.9226 3.67009 28.9271 3.78193 28.9692C3.88432 29.0073 3.99529 29.0164 4.10258 28.9957C4.17745 28.9842 4.24659 28.949 4.29966 28.8952C4.40699 28.7755 4.43315 28.5132 4.35513 28.3428H4.35332ZM2.78346 6.20276C2.81777 6.35118 2.87889 6.49219 2.96385 6.6189C3.0615 6.76006 3.18151 6.88455 3.31923 6.98751C3.35981 7.01846 3.68001 7.25388 3.73548 7.1911C3.7436 7.18213 3.76119 7.17137 3.76119 7.16106C3.76119 6.92249 3.97856 6.76554 4.20269 6.74043C4.46832 6.70993 4.67848 6.82428 4.84489 7.01666C4.91434 7.09693 4.98695 7.09334 5.04197 7.00725C5.17411 6.80097 5.40997 6.71218 5.64583 6.68392C5.7261 6.67451 5.81359 6.66733 5.87132 6.61217C5.93852 6.54895 5.9561 6.44939 6.02871 6.38796C6.11891 6.30724 6.2542 6.2911 6.37507 6.2911C6.51352 6.2911 6.69932 6.2911 6.82605 6.34895C6.97397 6.41531 7.01636 6.53415 7.1724 6.57765C7.35505 6.62787 7.50838 6.67675 7.62338 6.84222C7.68967 6.93729 7.78122 6.95433 7.8854 6.90097C7.94178 6.86779 7.99453 6.82887 8.04279 6.78482C8.15065 6.69112 8.27536 6.61854 8.41034 6.57092C8.6435 6.49469 8.95603 6.54401 9.09583 6.76419C9.10346 6.78022 9.1157 6.79364 9.13101 6.80276C9.14409 6.80602 9.15777 6.80617 9.17093 6.80321C9.18409 6.80025 9.19637 6.79426 9.20677 6.78572C9.64738 6.51083 9.82597 5.98258 9.59236 5.51531C9.53987 5.39692 9.44992 5.29882 9.3362 5.23594C9.29516 5.21544 9.25045 5.20318 9.20464 5.19987C9.15883 5.19656 9.11281 5.20227 9.06922 5.21665C8.97902 5.24849 8.91724 5.33325 8.81577 5.33818C8.77925 5.33889 8.74294 5.33249 8.70889 5.31934C8.38779 5.20993 8.24483 4.87091 8.25791 4.55252C8.27279 4.20858 8.49963 3.89557 8.84193 3.81171C8.90989 3.80042 8.97719 3.78545 9.04352 3.76687C9.07677 3.75722 9.10756 3.74057 9.13378 3.71806C9.16 3.69554 9.18105 3.66769 9.1955 3.63638C9.26269 3.457 8.96099 3.36238 8.8523 3.29153C8.75173 3.22561 8.64395 3.19467 8.53977 3.13817C8.42838 3.07673 8.31789 3.0135 8.21056 2.94445C8.0864 2.86564 7.9685 2.77749 7.85789 2.68077C7.80195 2.63157 7.7488 2.57932 7.69869 2.52426C7.66126 2.48301 7.58459 2.36776 7.52822 2.44041C7.49051 2.49248 7.4436 2.5373 7.38977 2.5727C7.2571 2.65103 7.11391 2.71021 6.9645 2.74848C6.91173 2.76418 6.85807 2.77897 6.80485 2.79332C6.49848 2.87618 6.17897 2.89977 5.86365 2.86283C5.66834 2.84292 5.47795 2.78968 5.30083 2.70543C5.21892 2.65881 5.14444 2.60032 5.07985 2.53189C5.02483 2.47942 4.94456 2.37987 4.86067 2.38256C4.80926 2.38256 4.7831 2.4144 4.74612 2.44534C4.40789 2.72382 4.02456 2.93862 3.64709 3.1579C3.39772 3.30962 3.15891 3.47786 2.93228 3.66149C2.82315 3.74714 2.66621 3.99467 2.84209 4.09468C2.8989 4.12122 2.95996 4.13761 3.02248 4.14311C3.28596 4.19198 3.51936 4.34235 3.67189 4.56149C3.83424 4.79737 3.93121 5.17002 3.76209 5.42248C3.6056 5.65522 3.3084 5.80365 3.02925 5.71083C2.99542 5.69917 2.9643 5.67988 2.92236 5.66015C2.76317 5.80096 2.74062 6.00455 2.78346 6.20276Z" fill="#3F8C65"/>
</svg>
