<svg width="18" height="50" viewBox="0 0 18 50" fill="none" xmlns="http://www.w3.org/2000/svg">
<path d="M0.441753 5.89589C0.931517 5.55287 1.48013 5.85191 1.97396 6.02782C1.98464 5.86131 2.00429 5.69563 2.03281 5.53161C2.21884 4.66161 2.71334 3.94259 3.38034 3.42807C3.98916 2.96045 4.69607 2.66874 5.40975 2.43786C5.15134 1.77821 5.30151 1.00569 5.92725 0.666335C6.12096 0.564105 6.33624 0.5194 6.55112 0.536784C6.76599 0.554167 6.97275 0.633017 7.15031 0.765283C7.17703 0.79257 7.21235 0.807776 7.24907 0.807794C7.27197 0.801544 7.29296 0.788909 7.30995 0.771146C7.52845 0.582047 7.70298 0.38855 7.96477 0.262483C8.25501 0.130345 8.56284 0.0491911 8.87666 0.0220781C9.67489 -0.0636763 10.806 0.0741169 11.2572 0.906008C11.2903 0.966842 11.3329 1.02181 11.3749 1.08558C11.7469 0.865696 12.1325 0.623092 12.5756 0.713244C12.716 0.740983 12.8486 0.803686 12.9628 0.896411C13.077 0.989136 13.1698 1.10935 13.2338 1.24756C13.388 1.6067 13.2494 1.86397 13.0843 2.17327C13.3454 2.39315 13.6979 2.49136 13.9942 2.65994C14.5399 2.97245 15.0228 3.3995 15.4147 3.91621C15.8396 4.47398 16.0608 5.05887 16.2698 5.73171C16.3143 5.72379 16.3583 5.71326 16.4017 5.70019C17.2967 5.33372 18.2194 6.17001 17.9535 7.19613C17.8798 7.48271 17.6694 7.8206 17.3948 7.91881C17.1533 8.0053 16.8042 7.78175 16.6162 8.03681C16.5736 8.10662 16.5465 8.18614 16.537 8.26916C16.3273 9.3246 15.6968 10.2371 14.9385 10.9378C14.1687 11.6495 13.2135 12.1259 12.2286 11.6334C12.0155 12.2784 11.4445 12.3912 10.9169 12.6214C10.835 12.6566 10.9081 13.4415 10.9088 13.5456C10.9088 15.0115 10.9358 16.4825 10.971 17.9506C10.9879 18.6836 11.0042 19.4165 11.0272 20.1494C11.0481 20.8296 11.0136 21.5266 11.0948 22.2061C11.1332 22.5533 11.2112 22.894 11.3268 23.2205C11.4466 23.5503 11.7117 23.8127 11.8051 24.1388C11.8357 24.2478 11.8415 24.3632 11.8221 24.4751C11.8026 24.587 11.7585 24.6922 11.6935 24.7816C11.498 25.0477 11.1469 24.9913 10.921 25.2163C10.9084 25.2261 10.8981 25.2388 10.8907 25.2535C10.8833 25.2682 10.8791 25.2846 10.8783 25.3013C10.8783 25.335 10.9101 25.3577 10.9365 25.3746C11.1435 25.5146 11.385 25.5879 11.5859 25.7411C11.7453 25.862 11.8718 26.0269 11.9523 26.2188C12.0328 26.4107 12.0644 26.6225 12.0436 26.8321C12.0229 27.0417 11.9507 27.2414 11.8345 27.4105C11.7183 27.5795 11.5624 27.7117 11.383 27.7933C11.2531 27.8527 11.086 27.9186 11.0772 28.0704C11.0789 28.1187 11.093 28.1657 11.1178 28.2059C11.1426 28.2461 11.1773 28.2781 11.2179 28.2983C11.2957 28.3445 11.385 28.3643 11.4662 28.4031C11.7287 28.527 11.8856 28.8502 11.8721 29.1595C11.8504 29.6271 11.3911 29.8983 11.2835 30.3322C10.99 31.5181 11.0955 32.781 11.0935 33.9969C11.0867 38.9419 11.0693 43.8868 11.0414 48.8317C11.0414 49.3668 10.9209 49.7889 10.3967 49.9143C9.68772 50.0821 8.94792 50.0023 8.28339 49.6863C8.22488 49.6625 8.17114 49.6266 8.1251 49.5808C8.05745 49.5031 8.06219 49.3807 7.99995 49.3074C7.93772 49.2341 7.81054 49.2385 7.72936 49.24C7.3997 49.2458 7.07003 49.2458 6.74037 49.24C6.62334 49.24 6.48533 49.2356 6.42242 49.111C6.33854 48.9453 6.37575 48.6558 6.3656 48.4704C6.36631 48.463 6.36437 48.4557 6.36019 48.4499C6.35426 48.4454 6.34708 48.4433 6.3399 48.444C5.91507 48.444 5.48213 48.4755 5.05866 48.4337C4.55672 48.3846 4.55739 48.3729 4.5486 48.9131C4.54048 49.3484 4.46201 49.4261 4.05613 49.4173C3.47504 49.4063 2.89396 49.3924 2.31287 49.399C1.86369 49.4049 1.8001 49.3572 1.79672 48.8618C1.79266 48.1948 1.80484 47.5278 1.79672 46.8608C1.79968 46.6593 1.84702 46.4614 1.93479 46.2837C2.02257 46.106 2.14825 45.9536 2.30137 45.8391C2.34968 45.8104 2.38901 45.7668 2.41434 45.7138C2.45154 45.6068 2.35887 45.5034 2.28378 45.4206C1.85422 44.9603 1.77372 44.2582 1.79875 43.6352C1.82243 43.0613 1.92187 42.4888 1.87587 41.9164C1.8576 41.6921 1.77169 41.33 2.05919 41.3029C2.31151 41.2802 2.56993 41.2868 2.82293 41.2839C3.10795 41.2804 3.39296 41.2804 3.67798 41.2839C3.86672 41.2875 4.28207 41.2106 4.4221 41.3682C4.61692 41.588 4.32537 42.0828 4.61219 42.233C4.66829 42.2568 4.7288 42.2659 4.78875 42.2594L6.12816 42.2294C6.1749 42.2334 6.22176 42.2233 6.26345 42.2C6.37981 42.1209 6.31283 41.9311 6.3081 41.783C6.30066 41.5184 6.54757 41.3161 6.78907 41.2795C7.03057 41.2428 7.27343 41.3212 7.5156 41.3586C8.48431 41.5096 8.42478 40.3992 8.45319 39.6509C8.49851 38.4532 8.45319 37.2534 8.46875 36.0558C8.48566 34.6104 8.57766 32.4761 8.15013 31.3202C7.80242 30.3784 7.6766 30.1578 7.6766 30.1578C7.39993 29.6806 7.19225 29.4981 7.18548 29.1397C7.18075 28.8641 7.32078 28.6039 7.50681 28.4163C7.69284 28.2287 7.92351 28.1011 8.15013 27.9765C7.76048 27.7471 7.37827 27.4283 7.2423 26.9702C7.16986 26.6981 7.18876 26.407 7.29564 26.1486C7.40251 25.8901 7.59046 25.6811 7.8261 25.5586C7.96613 25.4919 8.15284 25.4024 8.12848 25.239C8.11089 25.121 7.99319 25.0646 7.8951 25.0045C7.79681 24.9412 7.71281 24.8549 7.64926 24.7519C7.58571 24.649 7.5442 24.5319 7.52778 24.4093C7.46892 23.9476 7.85857 23.5239 7.95057 23.0775C8.05542 22.5689 8.04122 22.0434 8.08045 21.5266C8.15216 20.5885 8.21733 19.6498 8.27595 18.7107C8.30707 18.2115 8.57292 12.7606 8.56007 12.7606C7.94448 12.5825 7.43848 12.2791 7.1361 11.6671C6.41566 11.8269 5.86975 11.9207 5.12699 11.7484C3.76931 11.4325 2.5564 10.6307 1.93472 9.24397C1.84548 9.01681 1.74219 8.79643 1.62558 8.58432C1.45819 8.32751 1.21845 8.13643 0.942339 8.03975C0.560133 7.88729 0.224604 7.6227 0.0629272 7.18147C-0.014946 6.9542 -0.0207062 6.70529 0.0465488 6.47408C0.113802 6.24286 0.250242 6.04251 0.434313 5.90468L0.441753 5.89589ZM6.52998 45.1758C6.49645 45.0854 6.43783 45.0086 6.36222 44.9559C6.24857 44.8826 6.10719 44.8877 5.9746 44.8958C5.84201 44.9039 5.66748 44.887 5.53151 44.9229C5.43613 44.9486 5.36781 45.0424 5.26972 44.9493C5.21898 44.9009 5.22101 44.7895 5.21966 44.7294C5.21966 44.5096 5.15742 44.2728 4.98831 44.135C4.77792 43.9628 4.50666 44.0258 4.28275 44.1306C4.17045 44.1759 4.06864 44.2472 3.98443 44.3395C3.89165 44.4578 3.84335 44.6095 3.84913 44.7646C3.85194 44.9048 3.8873 45.0419 3.95196 45.1633C4.01149 45.2725 4.10416 45.3832 4.09401 45.5159C4.07738 45.6044 4.04271 45.6878 3.99254 45.76C3.87484 45.9798 3.83357 46.273 3.9391 46.5032C4.05816 46.7656 4.36798 46.8814 4.62504 46.8696C4.73296 46.8663 4.83885 46.837 4.93511 46.7841C5.03137 46.7311 5.11561 46.6557 5.18178 46.5633C5.23657 46.4826 5.27513 46.3903 5.32587 46.306C5.43546 46.1235 5.50513 46.1308 5.6729 46.1997C5.82648 46.2619 5.99293 46.2768 6.15387 46.243C6.26618 46.2243 6.36989 46.1667 6.44948 46.0788C6.61048 45.8831 6.64972 45.4543 6.53269 45.1758H6.52998ZM4.17519 8.98891C4.22665 9.23151 4.31834 9.46197 4.44578 9.66908C4.59225 9.8998 4.77227 10.1033 4.97884 10.2716C5.03972 10.3221 5.52001 10.7069 5.60322 10.6043C5.6154 10.5897 5.64178 10.5721 5.64178 10.5552C5.64178 10.1653 5.96784 9.90875 6.30404 9.86771C6.70248 9.81787 7.01772 10.0048 7.26733 10.3192C7.37151 10.4504 7.48043 10.4445 7.56295 10.3038C7.76116 9.96666 8.11495 9.82153 8.46875 9.77536C8.58916 9.75996 8.72039 9.74824 8.80698 9.65808C8.90777 9.55474 8.93416 9.39203 9.04307 9.29161C9.17836 9.15968 9.38131 9.1333 9.5626 9.1333C9.77028 9.1333 10.049 9.1333 10.2391 9.22785C10.461 9.33632 10.5245 9.53055 10.7586 9.60165C11.0326 9.68374 11.2626 9.76363 11.4351 10.0341C11.5345 10.1895 11.6718 10.2173 11.8281 10.1301C11.9127 10.0759 11.9918 10.0123 12.0642 9.94027C12.226 9.78712 12.413 9.6685 12.6155 9.59066C12.9652 9.46605 13.434 9.54668 13.6437 9.90655C13.6552 9.93276 13.6736 9.95469 13.6965 9.96959C13.7161 9.97491 13.7367 9.97517 13.7564 9.97033C13.7761 9.96549 13.7945 9.9557 13.8102 9.94174C14.4711 9.49244 14.7389 8.62903 14.3885 7.86531C14.3098 7.6718 14.1749 7.51146 14.0043 7.40868C13.9427 7.37518 13.8757 7.35515 13.807 7.34974C13.7382 7.34433 13.6692 7.35365 13.6038 7.37717C13.4685 7.4292 13.3759 7.56773 13.2237 7.57579C13.1689 7.57696 13.1144 7.5665 13.0633 7.54501C12.5817 7.36617 12.3672 6.81207 12.3869 6.29168C12.4092 5.72951 12.7495 5.21791 13.2629 5.08085C13.3648 5.0624 13.4658 5.03793 13.5653 5.00756C13.6152 4.99179 13.6613 4.96458 13.7007 4.92778C13.74 4.89098 13.7716 4.84545 13.7932 4.79427C13.894 4.5011 13.4415 4.34644 13.2784 4.23064C13.1276 4.1229 12.9659 4.07232 12.8097 3.97997C12.6426 3.87956 12.4768 3.77622 12.3158 3.66334C12.1296 3.53454 11.9527 3.39046 11.7868 3.23237C11.7029 3.15196 11.6232 3.06656 11.548 2.97657C11.4919 2.90914 11.3769 2.72078 11.2923 2.83951C11.2358 2.92462 11.1654 2.99788 11.0847 3.05573C10.8857 3.18376 10.6709 3.2805 10.4467 3.34304C10.3676 3.3687 10.2871 3.39288 10.2073 3.41634C9.74772 3.55176 9.26845 3.59033 8.79548 3.52995C8.50251 3.49741 8.21692 3.41038 7.95125 3.27268C7.82837 3.19649 7.71666 3.10089 7.61978 2.98903C7.53725 2.90328 7.41684 2.74057 7.29101 2.74496C7.21389 2.74496 7.17466 2.797 7.11919 2.84758C6.61183 3.30273 6.03683 3.65381 5.47063 4.01222C5.09658 4.2602 4.73837 4.53518 4.39843 4.83532C4.23472 4.97531 3.99931 5.3799 4.26313 5.54334C4.34834 5.58673 4.43994 5.61352 4.53372 5.6225C4.92894 5.70239 5.27904 5.94816 5.50784 6.30634C5.75137 6.69186 5.89681 7.30094 5.64313 7.71359C5.4084 8.09398 4.9626 8.33659 4.54387 8.18487C4.49313 8.16581 4.44646 8.1343 4.38354 8.10205C4.14475 8.33219 4.11093 8.66495 4.17519 8.98891Z" fill="#F9F4EC"/>
</svg>
