<svg width="312" height="29" viewBox="0 0 312 29" fill="none" xmlns="http://www.w3.org/2000/svg">
<path d="M14.394 22.7071V2.51846H5.7972C4.38203 2.51846 3.2958 2.89654 2.5385 3.65268C1.78121 4.40882 1.17248 5.5939 0.712317 7.20793C0.613463 7.50276 0.46605 7.6519 0.268344 7.6519C0.0376857 7.6519 -0.043825 7.45766 0.0220773 7.05878L0.762611 0.494572C0.793828 0.173732 0.910024 0.000305176 1.10773 0.000305176C1.20658 0.0267551 1.30076 0.0682874 1.38695 0.123438C1.61396 0.234894 1.85399 0.31762 2.10147 0.369705C2.50651 0.461062 2.92113 0.50299 3.33627 0.494572H29.9833C30.3979 0.50285 30.8119 0.460923 31.2164 0.369705C31.4649 0.317396 31.7061 0.234685 31.9344 0.123438C32.0177 0.0687787 32.109 0.0272497 32.2049 0.000305176C32.4362 0.000305176 32.568 0.165061 32.6003 0.494572L33.3409 7.05878C33.4068 7.4542 33.3079 7.6519 33.0443 7.6519C32.8137 7.6519 32.6819 7.50276 32.6506 7.20793C32.1882 5.58928 31.5789 4.40419 30.8227 3.65268C30.0666 2.90116 28.9838 2.52309 27.5744 2.51846H18.9759V22.7071C18.9759 24.1882 19.1077 25.1917 19.3713 25.7178C19.7089 26.2823 20.2326 26.7116 20.8524 26.9318C21.4768 27.1983 22.1471 27.3409 22.826 27.3515C23.5197 27.3515 23.8666 27.4833 23.8666 27.7469C23.8666 27.9446 23.5706 28.0434 22.9786 28.0434C22.3196 28.0434 21.2993 28.0267 19.9176 27.9932C18.536 27.9596 17.4665 27.9434 16.7092 27.9446C15.9196 27.9446 14.8339 27.9608 13.4523 27.9932C12.0706 28.0255 11.0665 28.0423 10.4398 28.0434C9.84903 28.0434 9.55305 27.9446 9.55189 27.7469C9.55189 27.4833 9.89875 27.3515 10.5925 27.3515C11.2713 27.3409 11.9416 27.1983 12.5661 26.9318C13.2598 26.6531 13.7373 26.2485 13.9986 25.7178C14.2599 25.1871 14.3917 24.1835 14.394 22.7071Z" fill="black"/>
<path d="M43.1537 22.707V5.08513C43.1537 4.0966 43.0225 3.3393 42.76 2.81324C42.4641 2.28833 41.9536 1.88367 41.2287 1.59925C40.5856 1.33598 39.8995 1.1937 39.2048 1.17955C38.481 1.17955 38.1191 1.04775 38.1191 0.784141C38.1191 0.588747 38.4319 0.490472 39.0574 0.489316C39.7141 0.489316 40.7506 0.505502 42.1669 0.537875C43.5832 0.570248 44.6695 0.587013 45.4256 0.588169C46.2141 0.588169 47.3079 0.571404 48.7069 0.537875C50.1058 0.504346 51.1343 0.488159 51.7921 0.489316C52.4165 0.489316 52.7304 0.588169 52.7304 0.784141C52.7304 1.04775 52.3685 1.17955 51.6447 1.17955C50.9577 1.19237 50.2793 1.33476 49.6451 1.59925C48.9375 1.87789 48.4357 2.28255 48.1398 2.81324C47.8761 3.34045 47.7443 4.09775 47.7443 5.08513V12.1401C47.7443 12.3708 47.8432 12.487 48.0409 12.487H71.6356C71.6691 12.492 71.7033 12.489 71.7355 12.4784C71.7676 12.4678 71.7968 12.4498 71.8208 12.4258C71.8447 12.4019 71.8627 12.3727 71.8733 12.3405C71.8839 12.3084 71.8869 12.2742 71.8819 12.2407V5.08513C71.8819 4.0966 71.7507 3.3393 71.4882 2.81324C71.1922 2.28833 70.6905 1.88367 69.9829 1.59925C69.3482 1.33686 68.6699 1.19625 67.9833 1.18476C67.2583 1.18476 66.8976 1.05295 66.8976 0.789344C66.8976 0.59395 67.2104 0.495675 67.8358 0.494518C68.4937 0.494518 69.5216 0.510705 70.9194 0.543078C72.3172 0.575451 73.3953 0.592216 74.1538 0.593372C74.9423 0.593372 76.0447 0.576607 77.461 0.543078C78.8774 0.509549 79.9139 0.493362 80.5706 0.494518C81.1949 0.494518 81.5088 0.593372 81.5088 0.789344C81.5088 1.05295 81.1464 1.18476 80.4214 1.18476C79.735 1.19775 79.0572 1.34014 78.4236 1.60445C77.7148 1.88309 77.213 2.28775 76.9182 2.81844C76.6546 3.34566 76.5228 4.10296 76.5228 5.09033V22.707C76.5228 24.254 76.6546 25.2576 76.9182 25.7177C77.213 26.245 77.7148 26.6496 78.4236 26.9317C79.057 27.1968 79.7349 27.3393 80.4214 27.3514C81.1464 27.3514 81.5088 27.4832 81.5088 27.7468C81.5088 27.9445 81.1949 28.0434 80.5706 28.0434C79.9116 28.0434 78.8832 28.0266 77.4853 27.9931C76.0875 27.9596 75.0099 27.9434 74.2526 27.9445C73.4618 27.9445 72.3675 27.9607 70.9697 27.9931C69.5719 28.0255 68.5272 28.0422 67.8358 28.0434C67.2104 28.0434 66.8976 27.9445 66.8976 27.7468C66.8976 27.4832 67.2583 27.3514 67.9833 27.3514C68.6703 27.3391 69.3488 27.1967 69.9829 26.9317C70.6893 26.6531 71.1911 26.2484 71.4882 25.7177C71.7507 25.2553 71.8819 24.2517 71.8819 22.707V14.8092C71.8819 14.5785 71.8004 14.4623 71.6356 14.4623H48.0912C48.0441 14.4557 47.9961 14.4601 47.951 14.4751C47.9059 14.4902 47.8649 14.5156 47.8312 14.5492C47.7976 14.5829 47.7722 14.6239 47.7572 14.669C47.7421 14.7141 47.7377 14.7621 47.7443 14.8092V22.707C47.7443 24.1881 47.8761 25.1917 48.1398 25.7177C48.7641 26.8034 49.9324 27.3462 51.6447 27.3462C52.3673 27.3462 52.7292 27.478 52.7304 27.7416C52.7304 27.9393 52.4165 28.0382 51.7921 28.0382C51.1331 28.0382 50.1047 28.0214 48.7069 27.9879C47.309 27.9544 46.2315 27.9382 45.4742 27.9393C44.6857 27.9393 43.5832 27.9555 42.1669 27.9879C40.7506 28.0203 39.7141 28.037 39.0574 28.0382C38.4307 28.0382 38.118 27.9393 38.1191 27.7416C38.1191 27.478 38.481 27.3462 39.2048 27.3462C40.9495 27.3462 42.1346 26.8034 42.76 25.7177C43.0225 25.0934 43.1537 24.0898 43.1537 22.707Z" fill="black"/>
<path d="M113.365 28.0382H101.665C100.217 28.0382 98.7441 28.0215 97.248 27.988C95.7519 27.9544 94.7726 27.9382 94.3102 27.9394C93.554 27.9394 92.4846 27.9556 91.1018 27.988C89.719 28.0203 88.6992 28.0371 88.0425 28.0382C87.3488 28.0382 87.002 27.9394 87.002 27.7417C87.002 27.4781 87.3297 27.3463 87.9887 27.3463C88.7026 27.3374 89.4084 27.195 90.0699 26.9266C90.7925 26.6479 91.3024 26.2433 91.5995 25.7126C91.8631 25.1877 91.9949 24.431 91.9949 23.4424V5.82572C91.9949 4.31112 91.8631 3.30698 91.5995 2.81329C91.3035 2.28839 90.7936 1.88372 90.0699 1.5993C89.4081 1.33181 88.7025 1.1895 87.9887 1.17961C87.3297 1.17961 87.002 1.0478 87.002 0.784195C87.002 0.588801 87.3488 0.490525 88.0425 0.489369C88.6669 0.489369 89.6536 0.505556 91.0029 0.537929C92.3522 0.570302 93.3893 0.587067 94.1142 0.588223C94.7721 0.588223 95.7675 0.571458 97.1006 0.537929C98.4337 0.5044 99.4291 0.488213 100.087 0.489369H114.114C114.717 0.498235 115.32 0.456466 115.916 0.364502C116.269 0.314411 116.618 0.231977 116.956 0.118236C117.1 0.0560299 117.253 0.016258 117.409 0.000305176C117.737 0.000305176 117.853 0.215355 117.756 0.641985L117.015 7.05878C117.022 7.12709 117.01 7.19595 116.979 7.25735C116.948 7.31876 116.901 7.37018 116.842 7.40564C116.795 7.43862 116.739 7.45632 116.681 7.45632C116.624 7.45632 116.568 7.43862 116.521 7.40564C116.465 7.35778 116.422 7.29665 116.396 7.22785C116.37 7.15906 116.362 7.08482 116.372 7.01196C116.306 6.22389 116.123 5.45004 115.829 4.71579C115.621 4.1912 115.311 3.71312 114.917 3.30929C114.57 2.98094 114.035 2.73409 113.311 2.56876C112.663 2.41453 112.003 2.31475 111.339 2.27046C110.746 2.23925 109.873 2.22306 108.722 2.22191H100.283C98.7684 2.22191 97.7729 2.45314 97.2966 2.91561C96.8202 3.37808 96.5821 4.4146 96.5821 6.02516V12.2911C96.5821 12.5547 96.6965 12.6865 96.9289 12.6865H106.407C109.139 12.6865 110.735 11.6829 111.195 9.6758C111.358 9.01678 111.522 8.68726 111.688 8.68726C111.885 8.68726 111.984 9.01678 111.984 9.6758C111.984 10.0383 111.967 10.6869 111.936 11.6251C111.904 12.5634 111.885 13.2137 111.885 13.5744C111.885 13.9352 111.901 14.5786 111.936 15.4995C111.97 16.4204 111.984 17.0794 111.984 17.4748C111.984 18.1338 111.885 18.4616 111.688 18.4616C111.514 18.4616 111.358 18.1338 111.195 17.4748C110.767 15.4677 109.171 14.4635 106.407 14.4624H96.9272C96.88 14.4554 96.8318 14.4595 96.7866 14.4744C96.7413 14.4894 96.7001 14.5147 96.6664 14.5485C96.6327 14.5822 96.6073 14.6233 96.5924 14.6686C96.5774 14.7139 96.5733 14.7621 96.5803 14.8092V21.3318C96.5803 23.4696 96.9012 24.827 97.5428 25.4039C98.1845 25.9808 99.7887 26.2699 102.355 26.271H107.636C110.631 26.271 112.91 25.8762 114.473 25.0865C116.036 24.2968 117.361 22.736 118.448 20.404C118.611 20.0415 118.808 19.9774 119.039 20.2063C119.171 20.2722 119.213 20.3797 119.138 20.5531L117.855 24.7986C117.392 26.2797 116.923 27.1931 116.448 27.5388C115.973 27.8845 114.945 28.051 113.365 28.0382Z" fill="black"/>
<path d="M167.489 21.8832L165.622 18.9037H147.636L146.861 20.1177C145.164 22.7931 144.315 24.5274 144.315 25.3205C144.302 25.6005 144.353 25.8798 144.464 26.1371C144.575 26.3944 144.744 26.6228 144.957 26.8051C145.384 27.167 146.288 27.3479 147.671 27.3479C148.191 27.3479 148.46 27.4641 148.46 27.6948C148.46 27.9254 148.214 28.0416 147.72 28.0416C147.026 28.0416 146.022 28.0248 144.709 27.9913C143.395 27.9578 142.409 27.9416 141.749 27.9428C141.089 27.9428 140.094 27.9589 138.762 27.9913C137.43 28.0237 136.435 28.0405 135.776 28.0416C135.282 28.0416 135.035 27.926 135.035 27.6948C135.035 27.4658 135.281 27.3479 135.776 27.3479C137.486 27.3479 138.925 26.797 140.094 25.6951C141.263 24.5933 142.801 22.5445 144.709 19.5489L155.52 2.81665C154.697 1.731 153.315 1.1876 151.374 1.18644C150.912 1.18644 150.68 1.05464 150.68 0.791026C150.68 0.595054 150.893 0.496201 151.322 0.496201H155.954C157.413 0.496201 158.426 0.669628 158.992 1.01648C159.559 1.36334 160.297 2.29637 161.207 3.81559L172.808 22.178C173.893 23.9031 174.93 25.1974 175.917 26.0611C176.85 26.9038 178.066 27.3655 179.323 27.3548C179.849 27.3548 180.112 27.4866 180.112 27.7502C180.112 27.948 179.849 28.0468 179.323 28.0468C178.629 28.0468 177.601 28.03 176.238 27.9965C174.875 27.963 173.831 27.9468 173.108 27.948C172.386 27.948 171.294 27.9641 169.83 27.9965C168.366 28.0289 167.273 28.0457 166.55 28.0468C166.056 28.0468 165.81 27.948 165.81 27.7502C165.81 27.519 166.057 27.4034 166.55 27.4034C168.313 27.4034 169.195 26.8438 169.195 25.7246C169.195 25.0644 168.626 23.784 167.489 21.8832ZM156.672 4.66885L148.765 17.1278H164.5L156.672 4.66885Z" fill="black"/>
<path d="M193.829 21.226V19.2021C193.849 18.7998 193.79 18.3973 193.656 18.0176C193.431 17.5925 193.157 17.195 192.841 16.8331L185.931 8.09587C184.088 5.76039 182.492 4.04057 181.143 2.93642C179.794 1.83226 178.494 1.24839 177.243 1.1848C176.421 1.1189 176.008 0.987097 176.008 0.789391C176.008 0.591684 176.337 0.494565 176.996 0.494565C177.818 0.494565 178.739 0.510751 179.759 0.543124C180.779 0.575497 181.766 0.592262 182.721 0.593418C183.741 0.593418 184.965 0.576653 186.393 0.543124C187.821 0.509595 188.78 0.493408 189.272 0.494565C189.965 0.494565 190.312 0.59284 190.312 0.789391C190.312 1.053 189.965 1.1848 189.272 1.1848C187.929 1.1848 187.257 1.53166 187.256 2.22537C187.256 3.01851 187.961 4.30533 189.37 6.08585L196.873 15.6608L204.817 5.70778C206.131 4.10185 206.788 2.95492 206.788 2.26699C206.788 1.54553 206.065 1.1848 204.62 1.1848C204.059 1.1848 203.779 1.053 203.78 0.789391C203.78 0.593996 204.043 0.495721 204.569 0.494565C205.457 0.494565 206.386 0.510751 207.356 0.543124C208.327 0.575497 209.108 0.592262 209.701 0.593418C210.326 0.593418 211.098 0.576653 212.02 0.543124C212.941 0.509595 213.715 0.493408 214.34 0.494565C215.063 0.494565 215.425 0.59284 215.426 0.789391C215.426 1.053 215.064 1.1848 214.34 1.1848C213.057 1.21718 211.996 1.55305 211.156 2.19241C210.317 2.83178 208.929 4.3643 206.994 6.78996L198.886 16.8591C198.308 17.6523 198.019 18.4275 198.019 19.1848V21.2122C198.019 23.0933 198.216 24.4292 198.611 25.22C199.005 25.9076 199.614 26.4463 200.345 26.7531C201.07 27.1006 201.861 27.2864 202.665 27.2977C203.455 27.2977 203.85 27.4289 203.85 27.6914C203.85 27.9226 203.521 28.0382 202.863 28.0382C202.072 28.0382 200.912 28.0215 199.382 27.9879C197.853 27.9544 196.726 27.9382 196.002 27.9394C195.244 27.9394 194.108 27.9556 192.596 27.9879C191.084 28.0203 189.866 28.0371 188.942 28.0382C188.285 28.0382 187.956 27.9226 187.955 27.6914C187.955 27.4301 188.334 27.2989 189.091 27.2977C189.911 27.2912 190.719 27.1059 191.46 26.7549C192.191 26.4487 192.8 25.9105 193.194 25.2235C193.619 24.4674 193.83 23.1349 193.829 21.226Z" fill="black"/>
<path d="M225.133 7.20784C225.133 4.77062 224.746 3.16584 223.973 2.39351C223.199 1.62118 222.072 1.21652 220.591 1.17952C219.737 1.17952 219.309 1.06391 219.308 0.832669C219.308 0.56906 219.655 0.437256 220.348 0.437256C221.302 0.437256 222.511 0.45402 223.976 0.48755C225.441 0.521079 226.733 0.537265 227.851 0.536109C228.936 0.536109 230.786 0.519923 233.4 0.48755C236.014 0.455177 237.749 0.438412 238.603 0.437256C240.018 0.437256 241.269 0.4783 242.354 0.560389C243.584 0.665505 244.805 0.855572 246.008 1.12923C247.185 1.36071 248.318 1.77688 249.364 2.3623C250.292 2.92921 251.064 3.71837 251.61 4.65847C252.236 5.72725 252.553 6.94927 252.524 8.18771C252.524 12.3014 249.743 14.7872 244.181 15.6451C244.939 16.0382 246.008 17.1897 247.389 19.0997C249.89 22.7209 251.815 25.0408 253.166 26.0594C254.516 27.0779 256.178 27.5404 258.15 27.4468C258.23 27.4408 258.311 27.4507 258.387 27.476C258.463 27.5013 258.534 27.5415 258.594 27.5942C258.64 27.6325 258.671 27.6865 258.68 27.7459C258.69 27.8054 258.677 27.8661 258.644 27.9168C258.599 27.9808 258.54 28.0339 258.472 28.0723C258.403 28.1107 258.327 28.1334 258.249 28.1387C257.262 28.237 256.324 28.2862 255.436 28.2862C254.119 28.2862 253.165 28.27 252.573 28.2376C251.829 28.1766 251.093 28.0442 250.375 27.8422C249.64 27.6742 248.944 27.3637 248.327 26.9282C247.616 26.3532 246.94 25.7352 246.303 25.0778C245.398 24.1639 244.565 23.1817 243.811 22.1399C243.002 21.0381 241.94 19.5495 240.627 17.6742C239.839 16.6197 238.901 16.0763 237.814 16.044H230.064C229.866 16.044 229.767 16.1601 229.767 16.3908V21.5728C229.767 23.9742 230.162 25.5292 230.952 26.238C231.741 26.9467 232.893 27.3005 234.408 27.2994C235.23 27.3653 235.641 27.4965 235.641 27.693C235.641 27.9243 235.312 28.0399 234.654 28.0399C233.7 28.0399 232.458 28.0231 230.927 27.9896C229.397 27.9561 228.27 27.9399 227.547 27.941C226.79 27.941 225.622 27.9572 224.042 27.9896C222.463 28.022 221.196 28.0387 220.241 28.0399C219.582 28.0399 219.254 27.9237 219.254 27.693C219.254 27.4976 219.665 27.3664 220.487 27.2994C221.092 27.3154 221.698 27.2572 222.289 27.1259C222.795 26.9804 223.272 26.7454 223.695 26.4322C224.19 26.0854 224.552 25.5113 224.783 24.698C225.013 23.8846 225.13 22.8475 225.13 21.5641L225.133 7.20784ZM230.069 14.4137H239.399C241.736 14.4137 243.644 13.8935 245.122 12.8529C246.601 11.8123 247.342 10.2578 247.344 8.18944C247.344 4.14281 244.695 2.1195 239.397 2.1195H235.152C232.517 2.1195 230.962 2.33339 230.487 2.76118C230.012 3.18896 229.773 4.65327 229.771 7.15408V14.1172C229.765 14.1576 229.768 14.1989 229.781 14.2377C229.794 14.2765 229.816 14.3117 229.845 14.3405C229.874 14.3693 229.909 14.391 229.948 14.4037C229.987 14.4164 230.028 14.4198 230.069 14.4137Z" fill="black"/>
<path d="M267.697 22.707V5.08513C267.697 4.0966 267.565 3.3393 267.302 2.81324C267.004 2.28833 266.503 1.88367 265.796 1.59925C265.162 1.33476 264.484 1.19237 263.797 1.17955C263.074 1.17955 262.712 1.04775 262.711 0.784141C262.711 0.588747 263.007 0.490472 263.601 0.489316C264.257 0.489316 265.294 0.505502 266.71 0.537875C268.126 0.570248 269.212 0.587013 269.967 0.588169C270.723 0.588169 271.809 0.571404 273.226 0.537875C274.642 0.504346 275.679 0.488159 276.335 0.489316C276.96 0.489316 277.274 0.588169 277.274 0.784141C277.274 1.04775 276.911 1.17955 276.186 1.17955C275.499 1.19398 274.82 1.33814 274.187 1.60445C273.478 1.88309 272.976 2.28775 272.681 2.81844C272.418 3.34566 272.286 4.10296 272.286 5.09033V22.707C272.286 24.1881 272.418 25.1917 272.681 25.7177C272.976 26.245 273.478 26.6496 274.187 26.9317C274.82 27.1968 275.498 27.3393 276.184 27.3514C276.909 27.3514 277.272 27.4832 277.272 27.7468C277.272 27.9445 276.958 28.0434 276.334 28.0434C275.675 28.0434 274.646 28.0266 273.248 27.9931C271.851 27.9596 270.776 27.9416 270.024 27.9393C269.266 27.9393 268.18 27.9555 266.766 27.9879C265.352 28.0203 264.299 28.037 263.608 28.0382C263.014 28.0382 262.718 27.9393 262.718 27.7416C262.718 27.478 263.08 27.3462 263.804 27.3462C264.491 27.3342 265.169 27.1918 265.803 26.9265C266.511 26.6479 267.013 26.2432 267.308 25.7125C267.567 25.1911 267.697 24.1893 267.697 22.707Z" fill="black"/>
<path d="M309.476 2.7647L309.872 7.84785C309.878 7.92821 309.868 8.009 309.843 8.08553C309.818 8.16205 309.777 8.23277 309.724 8.29356C309.681 8.34116 309.623 8.37212 309.56 8.381C309.496 8.38989 309.432 8.37611 309.377 8.34211C309.303 8.29421 309.241 8.22863 309.198 8.15119C309.155 8.07375 309.131 7.98683 309.129 7.89814C308.142 3.85151 304.358 1.8282 297.777 1.8282C296.558 1.82225 295.341 1.89582 294.131 2.04845C293.027 2.19364 291.937 2.43327 290.873 2.7647C289.82 3.09421 288.989 3.57981 288.381 4.22149C288.081 4.53241 287.846 4.89951 287.689 5.30164C287.533 5.70376 287.457 6.13296 287.467 6.56449C287.458 7.08253 287.577 7.59468 287.814 8.05546C288.051 8.51624 288.398 8.91138 288.825 9.20578C289.73 9.88099 290.898 10.3747 292.33 10.6868C293.761 10.999 295.344 11.2881 297.08 11.554L302.338 12.3656C303.972 12.6081 305.579 13.0035 307.139 13.5467C308.502 14.012 309.713 14.84 310.642 15.9417C311.547 17.0285 312 18.3621 312 19.9426C312 22.6747 310.691 24.7888 308.075 26.2849C305.459 27.781 301.863 28.5296 297.29 28.5307C296.402 28.5307 295.579 28.5146 294.822 28.4822C294.064 28.4498 293.333 28.3839 292.626 28.2845C291.917 28.1856 291.343 28.1024 290.892 28.0382C290.441 27.974 289.896 27.8648 289.239 27.6914C288.582 27.5179 288.127 27.4121 287.881 27.3445C287.635 27.2769 287.174 27.1312 286.494 26.9005C285.814 26.6699 285.399 26.5381 285.235 26.5051C284.808 26.375 284.52 26.4479 284.368 26.7271C284.215 27.0063 284.097 27.1468 283.998 27.1468C283.603 27.1468 283.371 26.7358 283.304 25.9137L282.467 19.0027C282.467 18.7061 282.597 18.5587 282.86 18.5587C283.034 18.5587 283.157 18.7321 283.256 19.0512C285.072 24.1558 289.748 26.708 297.284 26.708C301.003 26.708 303.767 26.2247 305.578 25.2582C307.388 24.2916 308.293 22.9713 308.292 21.2971C308.292 19.8877 307.682 18.7645 306.464 17.9274C305.245 17.0903 303.731 16.5377 301.92 16.2695L295.998 15.3885C293.861 15.0717 291.888 14.7248 290.079 14.3479C288.269 13.971 286.755 13.231 285.536 12.128C284.319 11.025 283.71 9.58501 283.71 7.80796C283.71 6.29568 284.13 5.00422 284.969 3.9336C285.809 2.86298 286.955 2.05365 288.408 1.50562C289.842 0.966927 291.329 0.578679 292.843 0.347132C294.46 0.109477 296.094 -0.00646602 297.728 0.000278059C298.916 -0.00322511 300.103 0.06279 301.284 0.197985C302.402 0.329789 303.265 0.461594 303.875 0.593398C304.484 0.725203 305.183 0.89863 305.973 1.11368C306.763 1.32873 307.289 1.46863 307.551 1.53337C307.947 1.6328 308.243 1.5669 308.441 1.33567C308.639 1.10674 308.802 0.988812 308.933 0.988812C309.231 0.987655 309.412 1.57962 309.476 2.7647Z" fill="black"/>
</svg>
