<svg width="312" height="29" viewBox="0 0 312 29" fill="none" xmlns="http://www.w3.org/2000/svg">
<path d="M14.394 22.7071V2.51846H5.7972C4.38203 2.51846 3.2958 2.89654 2.5385 3.65268C1.78121 4.40882 1.17248 5.5939 0.712317 7.20793C0.613463 7.50276 0.46605 7.6519 0.268344 7.6519C0.0376857 7.6519 -0.043825 7.45766 0.0220773 7.05878L0.762611 0.494572C0.793828 0.173732 0.910024 0.000305176 1.10773 0.000305176C1.20658 0.0267551 1.30076 0.0682874 1.38695 0.123438C1.61396 0.234894 1.85399 0.31762 2.10147 0.369705C2.50651 0.461062 2.92113 0.50299 3.33627 0.494572H29.9833C30.3979 0.50285 30.8119 0.460923 31.2164 0.369705C31.4649 0.317396 31.7061 0.234685 31.9344 0.123438C32.0177 0.0687787 32.109 0.0272497 32.2049 0.000305176C32.4362 0.000305176 32.568 0.165061 32.6003 0.494572L33.3409 7.05878C33.4068 7.4542 33.3079 7.6519 33.0443 7.6519C32.8137 7.6519 32.6819 7.50276 32.6506 7.20793C32.1882 5.58928 31.5789 4.40419 30.8227 3.65268C30.0666 2.90116 28.9838 2.52309 27.5744 2.51846H18.9759V22.7071C18.9759 24.1882 19.1077 25.1917 19.3713 25.7178C19.7089 26.2823 20.2326 26.7116 20.8524 26.9318C21.4768 27.1983 22.1471 27.3409 22.826 27.3515C23.5197 27.3515 23.8666 27.4833 23.8666 27.7469C23.8666 27.9446 23.5706 28.0434 22.9786 28.0434C22.3196 28.0434 21.2993 28.0267 19.9176 27.9932C18.536 27.9596 17.4665 27.9434 16.7092 27.9446C15.9196 27.9446 14.8339 27.9608 13.4523 27.9932C12.0706 28.0255 11.0665 28.0423 10.4398 28.0434C9.84903 28.0434 9.55305 27.9446 9.55189 27.7469C9.55189 27.4833 9.89875 27.3515 10.5925 27.3515C11.2713 27.3409 11.9416 27.1983 12.5661 26.9318C13.2598 26.6531 13.7373 26.2485 13.9986 25.7178C14.2599 25.1871 14.3917 24.1835 14.394 22.7071Z" fill="#F9F4EC"/>
<path d="M43.1518 22.707V5.08513C43.1518 4.0966 43.0205 3.3393 42.7581 2.81324C42.4621 2.28833 41.9517 1.88367 41.2267 1.59925C40.5837 1.33598 39.8976 1.1937 39.2028 1.17955C38.4791 1.17955 38.1172 1.04775 38.1172 0.784141C38.1172 0.588747 38.4299 0.490472 39.0554 0.489316C39.7121 0.489316 40.7487 0.505502 42.165 0.537875C43.5813 0.570248 44.6675 0.587013 45.4237 0.588169C46.2122 0.588169 47.3059 0.571404 48.7049 0.537875C50.1039 0.504346 51.1323 0.488159 51.7902 0.489316C52.4145 0.489316 52.7284 0.588169 52.7284 0.784141C52.7284 1.04775 52.3665 1.17955 51.6428 1.17955C50.9557 1.19237 50.2773 1.33476 49.6431 1.59925C48.9356 1.87789 48.4338 2.28255 48.1378 2.81324C47.8742 3.34045 47.7424 4.09775 47.7424 5.08513V12.1401C47.7424 12.3708 47.8412 12.487 48.0389 12.487H71.6337C71.6672 12.492 71.7014 12.489 71.7335 12.4784C71.7657 12.4678 71.7949 12.4498 71.8188 12.4258C71.8427 12.4019 71.8607 12.3727 71.8714 12.3405C71.882 12.3084 71.8849 12.2742 71.88 12.2407V5.08513C71.88 4.0966 71.7487 3.3393 71.4863 2.81324C71.1903 2.28833 70.6885 1.88367 69.9809 1.59925C69.3463 1.33686 68.6679 1.19625 67.9813 1.18476C67.2564 1.18476 66.8957 1.05295 66.8957 0.789344C66.8957 0.59395 67.2084 0.495675 67.8339 0.494518C68.4918 0.494518 69.5196 0.510705 70.9174 0.543078C72.3153 0.575451 73.3934 0.592216 74.1518 0.593372C74.9404 0.593372 76.0428 0.576607 77.4591 0.543078C78.8754 0.509549 79.9119 0.493362 80.5686 0.494518C81.193 0.494518 81.5069 0.593372 81.5069 0.789344C81.5069 1.05295 81.1444 1.18476 80.4195 1.18476C79.7331 1.19775 79.0553 1.34014 78.4216 1.60445C77.7129 1.88309 77.2111 2.28775 76.9163 2.81844C76.6527 3.34566 76.5209 4.10296 76.5209 5.09033V22.707C76.5209 24.254 76.6527 25.2576 76.9163 25.7177C77.2111 26.245 77.7129 26.6496 78.4216 26.9317C79.055 27.1968 79.733 27.3393 80.4195 27.3514C81.1444 27.3514 81.5069 27.4832 81.5069 27.7468C81.5069 27.9445 81.193 28.0434 80.5686 28.0434C79.9096 28.0434 78.8812 28.0266 77.4834 27.9931C76.0856 27.9596 75.008 27.9434 74.2507 27.9445C73.4599 27.9445 72.3655 27.9607 70.9677 27.9931C69.5699 28.0255 68.5253 28.0422 67.8339 28.0434C67.2084 28.0434 66.8957 27.9445 66.8957 27.7468C66.8957 27.4832 67.2564 27.3514 67.9813 27.3514C68.6684 27.3391 69.3469 27.1967 69.9809 26.9317C70.6874 26.6531 71.1891 26.2484 71.4863 25.7177C71.7487 25.2553 71.88 24.2517 71.88 22.707V14.8092C71.88 14.5785 71.7984 14.4623 71.6337 14.4623H48.0892C48.0421 14.4557 47.9941 14.4601 47.949 14.4751C47.9039 14.4902 47.8629 14.5156 47.8293 14.5492C47.7956 14.5829 47.7703 14.6239 47.7552 14.669C47.7401 14.7141 47.7357 14.7621 47.7424 14.8092V22.707C47.7424 24.1881 47.8742 25.1917 48.1378 25.7177C48.7621 26.8034 49.9305 27.3462 51.6428 27.3462C52.3654 27.3462 52.7273 27.478 52.7284 27.7416C52.7284 27.9393 52.4145 28.0382 51.7902 28.0382C51.1312 28.0382 50.1027 28.0214 48.7049 27.9879C47.3071 27.9544 46.2295 27.9382 45.4722 27.9393C44.6837 27.9393 43.5813 27.9555 42.165 27.9879C40.7487 28.0203 39.7121 28.037 39.0554 28.0382C38.4288 28.0382 38.116 27.9393 38.1172 27.7416C38.1172 27.478 38.4791 27.3462 39.2028 27.3462C40.9475 27.3462 42.1326 26.8034 42.7581 25.7177C43.0205 25.0934 43.1518 24.0898 43.1518 22.707Z" fill="#F9F4EC"/>
<path d="M113.367 28.0382H101.667C100.218 28.0382 98.7461 28.0215 97.25 27.988C95.7539 27.9544 94.7746 27.9382 94.3121 27.9394C93.556 27.9394 92.4865 27.9556 91.1037 27.988C89.7209 28.0203 88.7012 28.0371 88.0445 28.0382C87.3508 28.0382 87.0039 27.9394 87.0039 27.7417C87.0039 27.4781 87.3317 27.3463 87.9907 27.3463C88.7045 27.3374 89.4104 27.195 90.0718 26.9266C90.7944 26.6479 91.3043 26.2433 91.6015 25.7126C91.8651 25.1877 91.9969 24.431 91.9969 23.4424V5.82572C91.9969 4.31112 91.8651 3.30698 91.6015 2.81329C91.3055 2.28839 90.7956 1.88372 90.0718 1.5993C89.4101 1.33181 88.7044 1.1895 87.9907 1.17961C87.3317 1.17961 87.0039 1.0478 87.0039 0.784195C87.0039 0.588801 87.3508 0.490525 88.0445 0.489369C88.6688 0.489369 89.6556 0.505556 91.0049 0.537929C92.3541 0.570302 93.3912 0.587067 94.1161 0.588223C94.774 0.588223 95.7695 0.571458 97.1026 0.537929C98.4356 0.5044 99.4311 0.488213 100.089 0.489369H114.116C114.719 0.498235 115.322 0.456466 115.918 0.364502C116.271 0.314411 116.62 0.231977 116.958 0.118236C117.102 0.0560299 117.255 0.016258 117.411 0.000305176C117.739 0.000305176 117.855 0.215355 117.758 0.641985L117.017 7.05878C117.024 7.12709 117.011 7.19595 116.981 7.25735C116.95 7.31876 116.903 7.37018 116.844 7.40564C116.797 7.43862 116.741 7.45632 116.683 7.45632C116.626 7.45632 116.57 7.43862 116.523 7.40564C116.467 7.35778 116.424 7.29665 116.398 7.22785C116.372 7.15906 116.364 7.08482 116.374 7.01196C116.308 6.22389 116.125 5.45004 115.831 4.71579C115.623 4.1912 115.313 3.71312 114.919 3.30929C114.572 2.98094 114.037 2.73409 113.313 2.56876C112.665 2.41453 112.005 2.31475 111.341 2.27046C110.748 2.23925 109.875 2.22306 108.724 2.22191H100.285C98.7703 2.22191 97.7749 2.45314 97.2985 2.91561C96.8222 3.37808 96.584 4.4146 96.584 6.02516V12.2911C96.584 12.5547 96.6985 12.6865 96.9309 12.6865H106.409C109.141 12.6865 110.737 11.6829 111.197 9.6758C111.36 9.01678 111.524 8.68726 111.69 8.68726C111.887 8.68726 111.986 9.01678 111.986 9.6758C111.986 10.0383 111.969 10.6869 111.938 11.6251C111.906 12.5634 111.887 13.2137 111.887 13.5744C111.887 13.9352 111.903 14.5786 111.938 15.4995C111.972 16.4204 111.986 17.0794 111.986 17.4748C111.986 18.1338 111.887 18.4616 111.69 18.4616C111.516 18.4616 111.36 18.1338 111.197 17.4748C110.769 15.4677 109.173 14.4635 106.409 14.4624H96.9291C96.882 14.4554 96.8338 14.4595 96.7885 14.4744C96.7432 14.4894 96.7021 14.5147 96.6683 14.5485C96.6346 14.5822 96.6093 14.6233 96.5943 14.6686C96.5794 14.7139 96.5753 14.7621 96.5823 14.8092V21.3318C96.5823 23.4696 96.9031 24.827 97.5448 25.4039C98.1865 25.9808 99.7907 26.2699 102.357 26.271H107.638C110.633 26.271 112.912 25.8762 114.475 25.0865C116.038 24.2968 117.363 22.736 118.45 20.404C118.613 20.0415 118.81 19.9774 119.041 20.2063C119.173 20.2722 119.214 20.3797 119.14 20.5531L117.857 24.7986C117.394 26.2797 116.925 27.1931 116.45 27.5388C115.975 27.8845 114.947 28.051 113.367 28.0382Z" fill="#F9F4EC"/>
<path d="M167.489 21.8832L165.622 18.9037H147.636L146.861 20.1177C145.164 22.7931 144.315 24.5274 144.315 25.3205C144.302 25.6005 144.353 25.8798 144.464 26.1371C144.575 26.3944 144.744 26.6228 144.957 26.8051C145.384 27.167 146.288 27.3479 147.671 27.3479C148.191 27.3479 148.46 27.4641 148.46 27.6948C148.46 27.9254 148.214 28.0416 147.72 28.0416C147.026 28.0416 146.022 28.0248 144.709 27.9913C143.395 27.9578 142.409 27.9416 141.749 27.9428C141.089 27.9428 140.094 27.9589 138.762 27.9913C137.43 28.0237 136.435 28.0405 135.776 28.0416C135.282 28.0416 135.035 27.926 135.035 27.6948C135.035 27.4658 135.281 27.3479 135.776 27.3479C137.486 27.3479 138.925 26.797 140.094 25.6951C141.263 24.5933 142.801 22.5445 144.709 19.5489L155.52 2.81665C154.697 1.731 153.315 1.1876 151.374 1.18644C150.912 1.18644 150.68 1.05464 150.68 0.791026C150.68 0.595054 150.893 0.496201 151.322 0.496201H155.954C157.413 0.496201 158.426 0.669628 158.992 1.01648C159.559 1.36334 160.297 2.29637 161.207 3.81559L172.808 22.178C173.893 23.9031 174.93 25.1974 175.917 26.0611C176.85 26.9038 178.066 27.3655 179.323 27.3548C179.849 27.3548 180.112 27.4866 180.112 27.7502C180.112 27.948 179.849 28.0468 179.323 28.0468C178.629 28.0468 177.601 28.03 176.238 27.9965C174.875 27.963 173.831 27.9468 173.108 27.948C172.386 27.948 171.294 27.9641 169.83 27.9965C168.366 28.0289 167.273 28.0457 166.55 28.0468C166.056 28.0468 165.81 27.948 165.81 27.7502C165.81 27.519 166.057 27.4034 166.55 27.4034C168.313 27.4034 169.195 26.8438 169.195 25.7246C169.195 25.0644 168.626 23.784 167.489 21.8832ZM156.672 4.66885L148.765 17.1278H164.5L156.672 4.66885Z" fill="#F9F4EC"/>
<path d="M193.829 21.226V19.2021C193.849 18.7998 193.79 18.3973 193.656 18.0176C193.431 17.5925 193.157 17.195 192.841 16.8331L185.931 8.09587C184.088 5.76039 182.492 4.04057 181.143 2.93642C179.794 1.83226 178.494 1.24839 177.243 1.1848C176.421 1.1189 176.008 0.987097 176.008 0.789391C176.008 0.591684 176.337 0.494565 176.996 0.494565C177.818 0.494565 178.739 0.510751 179.759 0.543124C180.779 0.575497 181.766 0.592262 182.721 0.593418C183.741 0.593418 184.965 0.576653 186.393 0.543124C187.821 0.509595 188.78 0.493408 189.272 0.494565C189.965 0.494565 190.312 0.59284 190.312 0.789391C190.312 1.053 189.965 1.1848 189.272 1.1848C187.929 1.1848 187.257 1.53166 187.256 2.22537C187.256 3.01851 187.961 4.30533 189.37 6.08585L196.873 15.6608L204.817 5.70778C206.131 4.10185 206.788 2.95492 206.788 2.26699C206.788 1.54553 206.065 1.1848 204.62 1.1848C204.059 1.1848 203.779 1.053 203.78 0.789391C203.78 0.593996 204.043 0.495721 204.569 0.494565C205.457 0.494565 206.386 0.510751 207.356 0.543124C208.327 0.575497 209.108 0.592262 209.701 0.593418C210.326 0.593418 211.098 0.576653 212.02 0.543124C212.941 0.509595 213.715 0.493408 214.34 0.494565C215.063 0.494565 215.425 0.59284 215.426 0.789391C215.426 1.053 215.064 1.1848 214.34 1.1848C213.057 1.21718 211.996 1.55305 211.156 2.19241C210.317 2.83178 208.929 4.3643 206.994 6.78996L198.886 16.8591C198.308 17.6523 198.019 18.4275 198.019 19.1848V21.2122C198.019 23.0933 198.216 24.4292 198.611 25.22C199.005 25.9076 199.614 26.4463 200.345 26.7531C201.07 27.1006 201.861 27.2864 202.665 27.2977C203.455 27.2977 203.85 27.4289 203.85 27.6914C203.85 27.9226 203.521 28.0382 202.863 28.0382C202.072 28.0382 200.912 28.0215 199.382 27.9879C197.853 27.9544 196.726 27.9382 196.002 27.9394C195.244 27.9394 194.108 27.9556 192.596 27.9879C191.084 28.0203 189.866 28.0371 188.942 28.0382C188.285 28.0382 187.956 27.9226 187.955 27.6914C187.955 27.4301 188.334 27.2989 189.091 27.2977C189.911 27.2912 190.719 27.1059 191.46 26.7549C192.191 26.4487 192.8 25.9105 193.194 25.2235C193.619 24.4674 193.83 23.1349 193.829 21.226Z" fill="#F9F4EC"/>
<path d="M225.133 7.20784C225.133 4.77062 224.746 3.16584 223.973 2.39351C223.199 1.62118 222.072 1.21652 220.591 1.17952C219.737 1.17952 219.309 1.06391 219.308 0.832669C219.308 0.56906 219.655 0.437256 220.348 0.437256C221.302 0.437256 222.511 0.45402 223.976 0.48755C225.441 0.521079 226.733 0.537265 227.851 0.536109C228.936 0.536109 230.786 0.519923 233.4 0.48755C236.014 0.455177 237.749 0.438412 238.603 0.437256C240.018 0.437256 241.269 0.4783 242.354 0.560389C243.584 0.665505 244.805 0.855572 246.008 1.12923C247.185 1.36071 248.318 1.77688 249.364 2.3623C250.292 2.92921 251.064 3.71837 251.61 4.65847C252.236 5.72725 252.553 6.94927 252.524 8.18771C252.524 12.3014 249.743 14.7872 244.181 15.6451C244.939 16.0382 246.008 17.1897 247.389 19.0997C249.89 22.7209 251.815 25.0408 253.166 26.0594C254.516 27.0779 256.178 27.5404 258.15 27.4468C258.23 27.4408 258.311 27.4507 258.387 27.476C258.463 27.5013 258.534 27.5415 258.594 27.5942C258.64 27.6325 258.671 27.6865 258.68 27.7459C258.69 27.8054 258.677 27.8661 258.644 27.9168C258.599 27.9808 258.54 28.0339 258.472 28.0723C258.403 28.1107 258.327 28.1334 258.249 28.1387C257.262 28.237 256.324 28.2862 255.436 28.2862C254.119 28.2862 253.165 28.27 252.573 28.2376C251.829 28.1766 251.093 28.0442 250.375 27.8422C249.64 27.6742 248.944 27.3637 248.327 26.9282C247.616 26.3532 246.94 25.7352 246.303 25.0778C245.398 24.1639 244.565 23.1817 243.811 22.1399C243.002 21.0381 241.94 19.5495 240.627 17.6742C239.839 16.6197 238.901 16.0763 237.814 16.044H230.064C229.866 16.044 229.767 16.1601 229.767 16.3908V21.5728C229.767 23.9742 230.162 25.5292 230.952 26.238C231.741 26.9467 232.893 27.3005 234.408 27.2994C235.23 27.3653 235.641 27.4965 235.641 27.693C235.641 27.9243 235.312 28.0399 234.654 28.0399C233.7 28.0399 232.458 28.0231 230.927 27.9896C229.397 27.9561 228.27 27.9399 227.547 27.941C226.79 27.941 225.622 27.9572 224.042 27.9896C222.463 28.022 221.196 28.0387 220.241 28.0399C219.582 28.0399 219.254 27.9237 219.254 27.693C219.254 27.4976 219.665 27.3664 220.487 27.2994C221.092 27.3154 221.698 27.2572 222.289 27.1259C222.795 26.9804 223.272 26.7454 223.695 26.4322C224.19 26.0854 224.552 25.5113 224.783 24.698C225.013 23.8846 225.13 22.8475 225.13 21.5641L225.133 7.20784ZM230.069 14.4137H239.399C241.736 14.4137 243.644 13.8935 245.122 12.8529C246.601 11.8123 247.342 10.2578 247.344 8.18944C247.344 4.14281 244.695 2.1195 239.397 2.1195H235.152C232.517 2.1195 230.962 2.33339 230.487 2.76118C230.012 3.18896 229.773 4.65327 229.771 7.15408V14.1172C229.765 14.1576 229.768 14.1989 229.781 14.2377C229.794 14.2765 229.816 14.3117 229.845 14.3405C229.874 14.3693 229.909 14.391 229.948 14.4037C229.987 14.4164 230.028 14.4198 230.069 14.4137Z" fill="#F9F4EC"/>
<path d="M267.697 22.707V5.08513C267.697 4.0966 267.565 3.3393 267.302 2.81324C267.004 2.28833 266.503 1.88367 265.796 1.59925C265.162 1.33476 264.484 1.19237 263.797 1.17955C263.074 1.17955 262.712 1.04775 262.711 0.784141C262.711 0.588747 263.007 0.490472 263.601 0.489316C264.257 0.489316 265.294 0.505502 266.71 0.537875C268.126 0.570248 269.212 0.587013 269.967 0.588169C270.723 0.588169 271.809 0.571404 273.226 0.537875C274.642 0.504346 275.679 0.488159 276.335 0.489316C276.96 0.489316 277.274 0.588169 277.274 0.784141C277.274 1.04775 276.911 1.17955 276.186 1.17955C275.499 1.19398 274.82 1.33814 274.187 1.60445C273.478 1.88309 272.976 2.28775 272.681 2.81844C272.418 3.34566 272.286 4.10296 272.286 5.09033V22.707C272.286 24.1881 272.418 25.1917 272.681 25.7177C272.976 26.245 273.478 26.6496 274.187 26.9317C274.82 27.1968 275.498 27.3393 276.184 27.3514C276.909 27.3514 277.272 27.4832 277.272 27.7468C277.272 27.9445 276.958 28.0434 276.334 28.0434C275.675 28.0434 274.646 28.0266 273.248 27.9931C271.851 27.9596 270.776 27.9416 270.024 27.9393C269.266 27.9393 268.18 27.9555 266.766 27.9879C265.352 28.0203 264.299 28.037 263.608 28.0382C263.014 28.0382 262.718 27.9393 262.718 27.7416C262.718 27.478 263.08 27.3462 263.804 27.3462C264.491 27.3342 265.169 27.1918 265.803 26.9265C266.511 26.6479 267.013 26.2432 267.308 25.7125C267.567 25.1911 267.697 24.1893 267.697 22.707Z" fill="#F9F4EC"/>
<path d="M309.478 2.7647L309.874 7.84785C309.88 7.92821 309.87 8.009 309.845 8.08553C309.819 8.16205 309.779 8.23277 309.726 8.29356C309.683 8.34116 309.625 8.37212 309.562 8.381C309.498 8.38989 309.434 8.37611 309.379 8.34211C309.305 8.29421 309.243 8.22863 309.2 8.15119C309.157 8.07375 309.133 7.98683 309.131 7.89814C308.144 3.85151 304.36 1.8282 297.779 1.8282C296.56 1.82225 295.343 1.89582 294.133 2.04845C293.029 2.19364 291.939 2.43327 290.875 2.7647C289.821 3.09421 288.991 3.57981 288.383 4.22149C288.083 4.53241 287.848 4.89951 287.691 5.30164C287.535 5.70376 287.459 6.13296 287.469 6.56449C287.46 7.08253 287.579 7.59468 287.816 8.05546C288.053 8.51624 288.4 8.91138 288.827 9.20578C289.732 9.88099 290.9 10.3747 292.332 10.6868C293.763 10.999 295.346 11.2881 297.082 11.554L302.34 12.3656C303.974 12.6081 305.581 13.0035 307.14 13.5467C308.504 14.012 309.715 14.84 310.644 15.9417C311.549 17.0285 312.002 18.3621 312.002 19.9426C312.002 22.6747 310.693 24.7888 308.077 26.2849C305.461 27.781 301.865 28.5296 297.292 28.5307C296.404 28.5307 295.581 28.5146 294.824 28.4822C294.066 28.4498 293.335 28.3839 292.628 28.2845C291.919 28.1856 291.345 28.1024 290.894 28.0382C290.443 27.974 289.898 27.8648 289.241 27.6914C288.584 27.5179 288.129 27.4121 287.883 27.3445C287.637 27.2769 287.176 27.1312 286.496 26.9005C285.816 26.6699 285.401 26.5381 285.237 26.5051C284.81 26.375 284.522 26.4479 284.37 26.7271C284.217 27.0063 284.099 27.1468 284 27.1468C283.605 27.1468 283.373 26.7358 283.306 25.9137L282.469 19.0027C282.469 18.7061 282.599 18.5587 282.862 18.5587C283.036 18.5587 283.159 18.7321 283.258 19.0512C285.074 24.1558 289.75 26.708 297.286 26.708C301.005 26.708 303.769 26.2247 305.58 25.2582C307.39 24.2916 308.295 22.9713 308.294 21.2971C308.294 19.8877 307.684 18.7645 306.466 17.9274C305.247 17.0903 303.733 16.5377 301.922 16.2695L296 15.3885C293.863 15.0717 291.89 14.7248 290.08 14.3479C288.271 13.971 286.757 13.231 285.538 12.128C284.321 11.025 283.712 9.58501 283.712 7.80796C283.712 6.29568 284.132 5.00422 284.971 3.9336C285.811 2.86298 286.957 2.05365 288.41 1.50562C289.844 0.966927 291.331 0.578679 292.845 0.347132C294.462 0.109477 296.095 -0.00646602 297.73 0.000278059C298.918 -0.00322511 300.105 0.06279 301.286 0.197985C302.404 0.329789 303.267 0.461594 303.877 0.593398C304.486 0.725203 305.185 0.89863 305.975 1.11368C306.765 1.32873 307.291 1.46863 307.553 1.53337C307.949 1.6328 308.245 1.5669 308.443 1.33567C308.641 1.10674 308.804 0.988812 308.935 0.988812C309.233 0.987655 309.414 1.57962 309.478 2.7647Z" fill="#F9F4EC"/>
</svg>
